<?xml version="1.0" encoding="UTF-8" standalone="no"?>
<!-- Created with Inkscape (http://www.inkscape.org/) -->

<svg
   version="1.1"
   id="svg2"
   width="800"
   height="800"
   viewBox="0 0 800 800"
   sodipodi:docname="laptop_cartoon.svg"
   inkscape:version="1.3 (0e150ed6c4, 2023-07-21)"
   xmlns:inkscape="http://www.inkscape.org/namespaces/inkscape"
   xmlns:sodipodi="http://sodipodi.sourceforge.net/DTD/sodipodi-0.dtd"
   xmlns="http://www.w3.org/2000/svg"
   xmlns:svg="http://www.w3.org/2000/svg">
  <defs
     id="defs6" />
  <sodipodi:namedview
     id="namedview4"
     pagecolor="#ffffff"
     bordercolor="#000000"
     borderopacity="0.25"
     inkscape:showpageshadow="2"
     inkscape:pageopacity="0.0"
     inkscape:pagecheckerboard="0"
     inkscape:deskcolor="#d1d1d1"
     inkscape:zoom="1.04625"
     inkscape:cx="399.5221"
     inkscape:cy="400"
     inkscape:window-width="1920"
     inkscape:window-height="1051"
     inkscape:window-x="-9"
     inkscape:window-y="-9"
     inkscape:window-maximized="1"
     inkscape:current-layer="g10" />
  <g
     id="g8"
     inkscape:groupmode="layer"
     inkscape:label="ink_ext_XXXXXX"
     transform="matrix(1.3333333,0,0,-1.3333333,0,800)">
    <g
       id="g10"
       transform="scale(0.1)">
      <path
         d="M 0,0 H 6000 V 6000 H 0 V 0"
         style="fill:none;fill-opacity:1;fill-rule:nonzero;stroke:none"
         id="path12" />
      <path
         d="M 5600,1725 V 1545 H 400 v 180 h 5200"
         style="fill:#c5c7c8;fill-opacity:1;fill-rule:nonzero;stroke:none"
         id="path14" />
      <path
         d="M 5600,1725 V 1545 H 400 v 180 h 5200"
         style="fill:#c5c7c8;fill-opacity:1;fill-rule:nonzero;stroke:none"
         id="path16" />
      <path
         d="m 5600,1725 v -180 h -170 v 180 h 170"
         style="fill:#a9abac;fill-opacity:1;fill-rule:nonzero;stroke:none"
         id="path18" />
      <path
         d="M 550,1725 V 1545 H 400 v 180 h 150"
         style="fill:#ffffff;fill-opacity:1;fill-rule:nonzero;stroke:none"
         id="path20" />
      <path
         d="m 3350,1625 h -700 c -38.66,0 -70,31.34 -70,70 v 30 h 840 v -30 c 0,-38.66 -31.34,-70 -70,-70"
         style="fill:#a9abac;fill-opacity:1;fill-rule:nonzero;stroke:none"
         id="path22" />
      <path
         d="m 5600,1545 c 0,0 -160,-110 -400,-110 -240,0 -4160,0 -4400,0 -240,0 -400,110 -400,110 h 5200"
         style="fill:#c5c7c8;fill-opacity:1;fill-rule:nonzero;stroke:none"
         id="path24" />
      <path
         d="M 5110,1725 H 890 v 2740 c 0,55.23 44.773,100 100,100 h 4020 c 55.22,0 100,-44.77 100,-100 V 1725"
         style="fill:#161717;fill-opacity:1;fill-rule:nonzero;stroke:none"
         id="path26" />
      <path
         d="M 5110,1725 H 890 v 2740 c 0,55.23 44.773,100 100,100 h 4020 c 55.22,0 100,-44.77 100,-100 V 1725"
         style="fill:#161717;fill-opacity:1;fill-rule:nonzero;stroke:none"
         id="path28" />
      <path
         d="m 990,4565 h 120 c -55.21,0 -100,-44.8 -100,-100 V 1725 H 890 v 2740 c 0,55.2 44.797,100 100,100"
         style="fill:#323335;fill-opacity:1;fill-rule:nonzero;stroke:none"
         id="path30" />
      <path
         d="M 5110,4465 V 1725 h -120 v 2740 c 0,55.2 -44.8,100 -100,100 h 120 c 55.2,0 100,-44.8 100,-100"
         style="fill:#040606;fill-opacity:1;fill-rule:nonzero;stroke:none"
         id="path32" />
      <path
         d="m 590,1545 c 0,0 148.301,-110 370.801,-110 H 800 c -240,0 -400,110 -400,110 h 190"
         style="fill:#ffffff;fill-opacity:1;fill-rule:nonzero;stroke:none"
         id="path34" />
      <path
         d="m 5600,1545 c 0,0 -160,-110 -400,-110 h -160.8 c 222.5,0 370.8,110 370.8,110 h 190"
         style="fill:#a9abac;fill-opacity:1;fill-rule:nonzero;stroke:none"
         id="path36" />
      <path
         d="M 4990,4355 V 1875 H 1010 v 2480 h 3980"
         style="fill:#52c7eb;fill-opacity:1;fill-rule:nonzero;stroke:none"
         id="path38" />
      <path
         d="m 3040,4455 c 0,-22.09 -17.91,-40 -40,-40 -22.09,0 -40,17.91 -40,40 0,22.09 17.91,40 40,40 22.09,0 40,-17.91 40,-40"
         style="fill:#28292a;fill-opacity:1;fill-rule:nonzero;stroke:none"
         id="path40" />
      <path
         d="M 3467.8,4355 1010,1897.2 V 3985 l 370,370 h 2087.8"
         style="fill:#88d8eb;fill-opacity:1;fill-rule:nonzero;stroke:none"
         id="path42" />
      <path
         d="M 4650,4355 2170,1875 h -981 l 2480,2480 h 981"
         style="fill:#88d8eb;fill-opacity:1;fill-rule:nonzero;stroke:none"
         id="path44" />
      <path
         d="M 4990,3789.4 V 2255 L 4610,1875 H 3075.6 L 4990,3789.4"
         style="fill:#88d8eb;fill-opacity:1;fill-rule:nonzero;stroke:none"
         id="path46" />
      <path
         d="M 4990,4355 V 4015.8 L 2849.2,1875 h -478 l 2480,2480 H 4990"
         style="fill:#88d8eb;fill-opacity:1;fill-rule:nonzero;stroke:none"
         id="path48" />
      <path
         d="M 5600,1725 V 1545 H 400 v 180 z"
         style="fill:none;stroke:#040606;stroke-width:40;stroke-linecap:butt;stroke-linejoin:round;stroke-miterlimit:10;stroke-dasharray:none;stroke-opacity:1"
         id="path50" />
      <path
         d="m 3350,1625 h -700 c -38.66,0 -70,31.34 -70,70 v 30 h 840 v -30 c 0,-38.66 -31.34,-70 -70,-70 z"
         style="fill:none;stroke:#040606;stroke-width:40;stroke-linecap:butt;stroke-linejoin:round;stroke-miterlimit:10;stroke-dasharray:none;stroke-opacity:1"
         id="path52" />
      <path
         d="m 5600,1545 c 0,0 -160,-110 -400,-110 -240,0 -4160,0 -4400,0 -240,0 -400,110 -400,110"
         style="fill:none;stroke:#040606;stroke-width:40;stroke-linecap:butt;stroke-linejoin:round;stroke-miterlimit:10;stroke-dasharray:none;stroke-opacity:1"
         id="path54" />
      <path
         d="M 5110,1725 H 890 v 2740 c 0,55.23 44.773,100 100,100 h 4020 c 55.22,0 100,-44.77 100,-100 z"
         style="fill:none;stroke:#040606;stroke-width:40;stroke-linecap:butt;stroke-linejoin:round;stroke-miterlimit:10;stroke-dasharray:none;stroke-opacity:1"
         id="path56" />
      <path
         d="M 4990,1875 H 1010 v 2480 h 3980 z"
         style="fill:none;stroke:#040606;stroke-width:40;stroke-linecap:butt;stroke-linejoin:round;stroke-miterlimit:10;stroke-dasharray:none;stroke-opacity:1"
         id="path58" />
      <path
         d="m 3040,4455 c 0,-22.09 -17.91,-40 -40,-40 -22.09,0 -40,17.91 -40,40 0,22.09 17.91,40 40,40 22.09,0 40,-17.91 40,-40 z"
         style="fill:none;stroke:#040606;stroke-width:20;stroke-linecap:butt;stroke-linejoin:round;stroke-miterlimit:10;stroke-dasharray:none;stroke-opacity:1"
         id="path60" />
    </g>
  </g>
</svg>
