<?xml version="1.0" encoding="UTF-8" standalone="no"?>
<!-- Created with Inkscape (http://www.inkscape.org/) -->

<svg
   version="1.1"
   id="svg2"
   width="1600.1333"
   height="1600.1333"
   viewBox="0 0 1600.1333 1600.1333"
   sodipodi:docname="v1065-008.svg"
   inkscape:version="1.3 (0e150ed6c4, 2023-07-21)"
   xmlns:inkscape="http://www.inkscape.org/namespaces/inkscape"
   xmlns:sodipodi="http://sodipodi.sourceforge.net/DTD/sodipodi-0.dtd"
   xmlns="http://www.w3.org/2000/svg"
   xmlns:svg="http://www.w3.org/2000/svg">
  <defs
     id="defs6" />
  <sodipodi:namedview
     id="namedview4"
     pagecolor="#ffffff"
     bordercolor="#000000"
     borderopacity="0.25"
     inkscape:showpageshadow="2"
     inkscape:pageopacity="0.0"
     inkscape:pagecheckerboard="0"
     inkscape:deskcolor="#d1d1d1"
     inkscape:zoom="0.52308142"
     inkscape:cx="800.06665"
     inkscape:cy="633.74455"
     inkscape:window-width="1920"
     inkscape:window-height="1051"
     inkscape:window-x="-9"
     inkscape:window-y="-9"
     inkscape:window-maximized="1"
     inkscape:current-layer="g8" />
  <g
     id="g8"
     inkscape:groupmode="layer"
     inkscape:label="ink_ext_XXXXXX"
     transform="matrix(1.3333333,0,0,-1.3333333,0,1600.1333)">
    <g
       id="g10"
       transform="scale(0.1)">
      <path
         d="m 0.5,0.5 h 12000 v 12000 H 0.5 Z"
         style="fill:none;fill-opacity:1;fill-rule:nonzero;stroke:none"
         id="path12" />
      <path
         d="M 12000.5,0.5 V 1 H 1 V 12000 H 12000 V 0.5 h 0.5 V 1 0.5 h 0.5 V 12001 H 0 V 0 h 12001 v 0.5 h -0.5"
         style="fill:#ffffff;fill-opacity:1;fill-rule:nonzero;stroke:none"
         id="path14" />
      <path
         d="m 5537.64,10164.8 c 7.05,71 16.87,147.3 70.31,199.1 54.21,52.4 139.37,66 218.4,76.9 468.3,64.2 777.53,62.9 1349.22,-75.5 75.17,-18.2 181.41,-85.7 224.31,-144.6 72.52,-99.6 66.03,-227.31 56.85,-345.14 -46.64,-598.98 -112.1,-1196.62 -158.75,-1795.59 -1.33,-17.02 -3.09,-35.13 -14.62,-48.5 -16.28,-18.9 -46.08,-22.12 -72.72,-23.77 -455.15,-28.24 -913.56,-21.97 -1368.85,18.7 -144.25,12.89 -424.59,26.91 -476.52,175.92 -52.77,151.42 29.12,432.15 39.7,591.16 30.48,458.15 87.25,914.44 132.67,1371.32"
         style="fill:#1e1e20;fill-opacity:1;fill-rule:nonzero;stroke:none"
         id="path16" />
      <path
         d="m 6040.13,10250.7 c -60.28,-119.5 -68.8,-254.97 -76.39,-386.86 -32.37,-562.01 -64.75,-1124.01 -97.12,-1686.02 -0.32,-5.68 -0.69,-11.5 -3.28,-16.65 -6.22,-12.35 -22.68,-16.88 -37.31,-20.1 -56.25,-12.39 -133.97,-15.23 -154.25,34.26 -5.76,14.07 -4.83,29.45 -3.82,44.31 9.67,142.36 19.35,284.73 29.03,427.1 38.72,569.69 77.52,1140.05 164.4,1704.66 2.26,14.7 4.78,30 13.94,42.2 32.97,44 246.74,100.6 296.59,57.9 43.17,-37 -103.17,-144.1 -131.79,-200.8"
         style="fill:#313234;fill-opacity:1;fill-rule:nonzero;stroke:none"
         id="path18" />
      <path
         d="m 6662.95,8577.6 c 92.44,156.89 111.6,340.47 123.62,518.9 17.58,260.53 23.6,521.87 18.09,783.19 -1.68,79.25 -4.6,159.61 -29.69,235.91 -25.1,76.3 -75.15,149.4 -151.45,189.7 -81.9,43.4 -182.91,44.3 -268.7,80.8 123.62,60.5 275.02,56.8 414.08,30.5 139.05,-26.4 273.04,-73.7 412.81,-96.5 53.6,-8.7 113.98,-16.9 146.98,-56.4 25.19,-30.1 26.96,-70.4 27.49,-107.9 9.38,-658.39 -42.45,-1316.59 -154.73,-1965.34 -4.05,-23.37 -9.38,-48.74 -29.26,-63.92 -14.96,-11.42 -35.38,-14.8 -54.85,-17.54 -126.77,-17.88 -255.45,-25.86 -384.13,-23.99 -17.15,0.26 -36.02,0.16 -55.98,0.06 -102.75,-0.51 -234.48,-1.01 -311.26,46.02 -120.94,74.08 2.2,137.3 69.54,194.08 88.05,74.24 170.43,155.69 227.44,252.43"
         style="fill:#161617;fill-opacity:1;fill-rule:nonzero;stroke:none"
         id="path20" />
      <path
         d="m 5600.15,10029.8 c 1.73,50.8 2.02,101.7 8.49,152 4.31,33.7 11.37,67 21.09,99.6 4.45,14.9 9.79,30.2 21.34,41.5 12.94,12.7 31.92,18.7 50.25,23.8 302.04,83.7 629.38,39.5 943.76,-5.5 23.22,-3.3 53.61,-15.3 48.43,-35.9 -42.32,4.4 -84.62,8.8 -126.94,13.1 -94.13,9.8 -188.29,19.5 -282.67,26.6 -183.43,13.9 -371.27,17.5 -546.62,-29.6 -17.66,-4.8 -35.8,-10.4 -48.89,-22 -15.7,-13.9 -21.75,-34.3 -26.59,-53.8 -25.38,-102.1 -34.53,-206.9 -42.29,-311.34 -3.89,-52.39 -7.34,-104.83 -12.35,-157.12 -3.23,-33.69 -0.21,-79.97 -16.02,-110.43 -19.58,30.88 -13.32,87 -10.68,121.42 6.35,82.7 16.89,164.63 19.69,247.67"
         style="fill:#545758;fill-opacity:1;fill-rule:nonzero;stroke:none"
         id="path22" />
      <path
         d="m 7744.97,1519.2 c -122.55,0 -249.94,12.5 -308.88,17.4 -961.72,79.7 -1846.84,160 -2868.92,237.8 -411.42,31.3 -544.6,-7.3 -949.58,98.1 -56.57,14.8 -110.03,79.2 -147.9,123.8 -76.24,89.62 -74.71,219.74 -68.18,337.24 56.74,1021.63 174,2099.65 258.02,3113.61 35.43,427.51 67.13,1042.22 121.64,1467.81 53.4,416.9 36.45,922.76 109.64,1322.98 25.49,139.4 166.99,179.27 339.12,179.27 208.31,0 461.5,-58.34 608.55,-69.29 169.83,-12.63 339.69,-25.26 509.53,-37.9 1.25,-39.91 6.4,-76.54 17.26,-107.7 51.93,-149.01 332.27,-163.03 476.52,-175.92 268.89,-24.02 538.83,-36.04 808.57,-36.04 187.01,0 373.93,5.78 560.28,17.34 26.64,1.65 56.44,4.87 72.72,23.77 11.53,13.37 13.29,31.48 14.62,48.5 2.19,28.15 4.43,56.34 6.7,84.49 127.96,-9.52 255.95,-19.04 383.9,-28.56 239.67,-17.83 536.5,-12.02 762.54,-93.66 45.74,-16.51 92.7,-37.13 122.35,-75.68 39.3,-51.09 28.31,-132.38 24.52,-196.74 -107.98,-1834.36 -290.47,-3505.14 -450.12,-5431.66 -21.68,-261.48 9.87,-589.06 -120.82,-758.06 -36.93,-47.8 -156.99,-60.9 -282.08,-60.9 m -4161.25,729.56 c 93.35,-181.37 306.3,-222.42 491.12,-242.55 314.62,-34.21 629.25,-68.51 943.88,-102.81 701.08,-76.3 1403.78,-152.7 2109.15,-152.7 73.75,0 147.54,0.8 221.35,2.6 97.08,2.3 200.09,9.7 296.86,34.4 14.07,-0.3 28.21,-0.5 42.27,-0.5 119.69,0 234.34,12.5 269.65,57.9 76.77,98.8 95.06,254.39 102.47,417.43 12.79,73.37 19.14,149.27 24.85,223.18 45.91,593.47 91.8,1186.81 137.7,1780.28 77.3,849.08 152.68,1669.95 214.93,2510.51 -6.3,6.41 -12.73,12.78 -19.28,19.11 9.48,122.58 18.94,245.16 28.28,367.75 -85.48,-55.96 -138.75,-142.87 -182.9,-240.59 -179.05,126.69 -391.97,218.48 -549.42,233.18 -20.19,1.89 -40.45,2.81 -60.65,2.81 -290.81,0 -575.83,-191.54 -675.83,-464.18 -61.39,-167.43 -56.8,-350.45 -78.02,-527.44 -21.22,-176.99 -78.31,-364.73 -223.48,-469.24 -92.17,-66.35 -204.97,-88.69 -320.39,-88.7 -68.18,0 -137.24,7.79 -203.57,18.91 -81.66,13.68 -166.59,33.37 -228.58,87.99 -49.09,43.24 -78.43,103.71 -113.83,158.6 -83.5,129.49 -228.48,236.99 -377.16,236.99 -28.65,0 -57.43,-3.99 -85.94,-12.58 -131.14,-39.52 -218.26,-164.6 -265.61,-292.43 -47.36,-127.83 -65.5,-265.18 -116.07,-391.78 -72.62,-181.79 -207.48,-330.88 -339.64,-475.74 -78.42,-85.97 -166.36,-177.17 -281.88,-194.12 -13.31,-1.95 -26.65,-2.85 -39.98,-2.85 -59.73,0 -119.34,17.96 -175.72,39.2 -146.39,55.14 -283.78,133.76 -405.47,231.7 -59.18,-657.83 -125.42,-1333.77 -171.96,-1993.65 -12.28,-75.05 -15.25,-157.53 -15.84,-236.5 -4.6,-72.73 -8.91,-145.15 -12.91,-217.34 -6.1,-109.98 -7.57,-231.53 61.62,-316.84"
         style="fill:#dddad7;fill-opacity:1;fill-rule:nonzero;stroke:none"
         id="path24" />
      <path
         d="m 6650.36,7990.36 c -269.74,0 -539.68,12.02 -808.57,36.04 -144.25,12.89 -424.59,26.91 -476.52,175.92 -10.86,31.16 -16.01,67.79 -17.26,107.7 108.14,-8.04 216.3,-16.09 324.45,-24.13 -1.5,-22.08 -3,-44.17 -4.5,-66.25 -1.01,-14.86 -1.94,-30.24 3.82,-44.31 12.99,-31.7 49.55,-41.93 88.94,-41.93 22.1,0 45.09,3.22 65.31,7.67 14.63,3.22 31.09,7.75 37.31,20.1 2.59,5.15 2.96,10.97 3.28,16.65 1.79,31.08 3.58,62.14 5.37,93.22 100.35,-7.47 200.71,-14.93 301.06,-22.4 52.94,-3.94 105.84,-7.87 158.78,-11.81 -25.72,-32.8 -27.72,-67.85 34.14,-105.74 68.87,-42.19 181.94,-46.13 278.67,-46.13 11.1,0 22,0.05 32.59,0.11 10.6,0.05 20.89,0.1 30.78,0.1 8.74,0 17.16,-0.04 25.2,-0.16 12.23,-0.18 24.44,-0.26 36.67,-0.26 116.43,0 232.74,8.07 347.46,24.25 19.47,2.74 39.89,6.12 54.85,17.54 14.81,11.31 21.55,28.28 25.7,45.86 35.61,-2.65 71.18,-5.29 106.79,-7.94 -2.27,-28.15 -4.51,-56.34 -6.7,-84.49 -1.33,-17.02 -3.09,-35.13 -14.62,-48.5 -16.28,-18.9 -46.08,-22.12 -72.72,-23.77 -186.35,-11.56 -373.27,-17.34 -560.28,-17.34"
         style="fill:#1b1c1d;fill-opacity:1;fill-rule:nonzero;stroke:none"
         id="path26" />
      <path
         d="m 5760.72,8133.4 c -39.39,0 -75.95,10.23 -88.94,41.93 -5.76,14.07 -4.83,29.45 -3.82,44.31 1.5,22.08 3,44.17 4.5,66.25 66.52,-4.95 133.01,-9.9 199.53,-14.85 -1.79,-31.08 -3.58,-62.14 -5.37,-93.22 -0.32,-5.68 -0.69,-11.5 -3.28,-16.65 -6.22,-12.35 -22.68,-16.88 -37.31,-20.1 -20.22,-4.45 -43.21,-7.67 -65.31,-7.67"
         style="fill:#2d2d2f;fill-opacity:1;fill-rule:nonzero;stroke:none"
         id="path28" />
      <path
         d="m 6769.88,8084.75 c -12.23,0 -24.44,0.08 -36.67,0.26 -8.04,0.12 -16.46,0.16 -25.2,0.16 -9.89,0 -20.18,-0.05 -30.78,-0.1 -10.59,-0.06 -21.49,-0.11 -32.59,-0.11 -96.73,0 -209.8,3.94 -278.67,46.13 -61.86,37.89 -59.86,72.94 -34.14,105.74 288.67,-21.47 577.39,-42.95 866.06,-64.43 -4.15,-17.58 -10.89,-34.55 -25.7,-45.86 -14.96,-11.42 -35.38,-14.8 -54.85,-17.54 -114.72,-16.18 -231.03,-24.25 -347.46,-24.25"
         style="fill:#141414;fill-opacity:1;fill-rule:nonzero;stroke:none"
         id="path30" />
      <path
         d="m 7127.87,1750.7 c -705.37,0 -1408.07,76.4 -2109.15,152.7 -314.63,34.3 -629.26,68.6 -943.88,102.81 -184.82,20.13 -397.77,61.18 -491.12,242.55 1.28,-1.58 2.59,-3.15 3.92,-4.7 36.33,-42.47 87.63,-103.97 141.87,-118.03 388.4,-100.7 516.1,-63.99 910.63,-94.03 980.14,-74.6 1828.93,-151.6 2751.2,-228 49.88,-4.1 150.92,-14 254.74,-16.3 -96.77,-24.7 -199.78,-32.1 -296.86,-34.4 -73.81,-1.8 -147.6,-2.6 -221.35,-2.6 m 932.6,511.83 c 4.68,102.92 5.03,208.79 13.03,305.24 48.61,586.62 99.47,1148.33 149.52,1698.22 -45.9,-593.47 -91.79,-1186.81 -137.7,-1780.28 -5.71,-73.91 -12.06,-149.81 -24.85,-223.18 m -4525.46,520.41 c 0.59,78.97 3.56,161.45 15.84,236.5 -5.58,-79.06 -10.88,-157.95 -15.84,-236.5 m 4883.66,4012.67 c -46.47,44.92 -98.9,87.72 -154.62,127.16 44.15,97.72 97.42,184.63 182.9,240.59 -9.34,-122.59 -18.8,-245.17 -28.28,-367.75"
         style="fill:#cfcdc9;fill-opacity:1;fill-rule:nonzero;stroke:none"
         id="path32" />
      <path
         d="m 7688.35,1787.2 c -14.06,0 -28.2,0.2 -42.27,0.5 127.41,32.6 244.01,95.2 322.1,215.84 49.25,76.12 76,165.51 92.29,258.99 -7.41,-163.04 -25.7,-318.63 -102.47,-417.43 -35.31,-45.4 -149.96,-57.9 -269.65,-57.9 m -4104.63,461.56 c -69.19,85.31 -67.72,206.86 -61.62,316.84 4,72.19 8.31,144.61 12.91,217.34 -0.53,-70 0.81,-137.24 -0.81,-194.07 -3.12,-109.6 -2.53,-224.15 40.12,-320.45 2.98,-6.72 6.12,-13.28 9.4,-19.66 m -32.87,770.68 c 46.54,659.88 112.78,1335.82 171.96,1993.65 121.69,-97.94 259.08,-176.56 405.47,-231.7 56.38,-21.24 115.99,-39.2 175.72,-39.2 13.33,0 26.67,0.9 39.98,2.85 115.52,16.95 203.46,108.15 281.88,194.12 132.16,144.86 267.02,293.95 339.64,475.74 50.57,126.6 68.71,263.95 116.07,391.78 47.35,127.83 134.47,252.91 265.61,292.43 28.51,8.59 57.29,12.58 85.94,12.58 148.68,0 293.66,-107.5 377.16,-236.99 35.4,-54.89 64.74,-115.36 113.83,-158.6 61.99,-54.62 146.92,-74.31 228.58,-87.99 66.33,-11.12 135.39,-18.91 203.57,-18.91 115.42,0.01 228.22,22.35 320.39,88.7 145.17,104.51 202.26,292.25 223.48,469.24 21.22,176.99 16.63,360.01 78.02,527.44 100,272.64 385.02,464.18 675.83,464.18 20.2,0 40.46,-0.92 60.65,-2.81 157.45,-14.7 370.37,-106.49 549.42,-233.18 -39.67,-87.81 -71.96,-184.35 -113.64,-275.05 -203.24,-442.33 -364.1,-720.89 -488.44,-1199.74 -124.33,-478.86 -291.54,-1149.06 -604.35,-1494.4 -276.22,-304.95 -644.61,-474.04 -1015.56,-549.98 -241.83,-49.52 -486.51,-62.36 -731.33,-62.36 -130.72,0 -261.46,3.66 -391.87,7.35 -294.36,8.32 -588.72,16.64 -883.07,24.97 -10.06,0.28 -20.25,0.44 -30.49,0.44 -152.38,0 -321.4,-34.77 -408.79,-203.93 -22.27,-43.09 -36.54,-94.8 -45.66,-150.63 m 4672.17,1246.55 c 63.43,820.01 126.86,1640.15 190.28,2460.16 1.79,23.16 3.58,46.3 5.37,69.46 6.55,-6.33 12.98,-12.7 19.28,-19.11 -62.25,-840.56 -137.63,-1661.43 -214.93,-2510.51"
         style="fill:#ddc9c9;fill-opacity:1;fill-rule:nonzero;stroke:none"
         id="path34" />
      <path
         d="m 7646.08,1787.7 c -103.82,2.3 -204.86,12.2 -254.74,16.3 -922.27,76.4 -1771.06,153.4 -2751.2,228 -394.53,30.04 -522.23,-6.67 -910.63,94.03 -54.24,14.06 -105.54,75.56 -141.87,118.03 -1.33,1.55 -2.64,3.12 -3.92,4.7 -3.28,6.38 -6.42,12.94 -9.4,19.66 -42.65,96.3 -43.24,210.85 -40.12,320.45 1.62,56.83 0.28,124.07 0.81,194.07 4.96,78.55 10.26,157.44 15.84,236.5 9.12,55.83 23.39,107.54 45.66,150.63 87.39,169.16 256.41,203.93 408.79,203.93 10.24,0 20.43,-0.16 30.49,-0.44 294.35,-8.33 588.71,-16.65 883.07,-24.97 130.41,-3.69 261.15,-7.35 391.87,-7.35 244.82,0 489.5,12.84 731.33,62.36 370.95,75.94 739.34,245.03 1015.56,549.98 312.81,345.34 480.02,1015.54 604.35,1494.4 124.34,478.85 285.2,757.41 488.44,1199.74 41.68,90.7 73.97,187.24 113.64,275.05 55.72,-39.44 108.15,-82.24 154.62,-127.16 -1.79,-23.16 -3.58,-46.3 -5.37,-69.46 C 8349.88,5906.14 8286.45,5086 8223.02,4265.99 8172.97,3716.1 8122.11,3154.39 8073.5,2567.77 c -8,-96.45 -8.35,-202.32 -13.03,-305.24 -16.29,-93.48 -43.04,-182.87 -92.29,-258.99 -78.09,-120.64 -194.69,-183.24 -322.1,-215.84 m -2933.64,421.35 c -19.57,0 -35.81,-0.24 -48.15,-0.76 971.61,-53.7 2095.35,-235.99 3064.69,-245.19 23.96,-0.2 51.96,-3.1 79.17,-3.1 35.91,0 70.46,5 92.63,27.6 30.23,30.69 25.53,92.74 29.48,135.66 81.63,886.72 163.81,1591.99 257.39,2721.19 l -11.08,343.86 C 8045.17,4175.66 7928.62,3186.07 7856.8,2189.05 c -1.73,-24.04 -1.39,-102.24 -17.84,-119.87 -11.78,-12.61 -42.05,-14.8 -70.06,-14.8 -7.44,0 -14.73,0.16 -21.46,0.31 -6.73,0.16 -12.9,0.31 -18.15,0.31 -1.76,0 -3.42,-0.02 -4.95,-0.06 -100.14,-2.65 -192.13,-3.88 -277.87,-3.88 -617.66,0 -913.17,63.49 -1633.16,113.08 -135.89,9.35 -863.1,44.91 -1100.87,44.91 m 2714.5,-66.19 c 30.65,0 61.21,-0.23 91.55,-1.28 33.76,-1.16 88.53,-9.9 138.87,-9.9 39.14,0 75.61,5.28 97.44,23.53 -44.6,16.64 -109.02,11.37 -156.99,14 -60.29,3.31 -120.64,5.4 -180.99,7.38 -118.06,3.87 -236.22,7.08 -353.95,17.35 -86.49,7.53 -182.51,23.9 -268.8,33.57 -329.57,36.91 -642.92,47.96 -1002.58,60.53 143.48,-30.14 300.95,-42.58 446.85,-56.98 135.02,-13.33 244.98,-17.63 360.84,-26.36 204.53,-15.42 403.45,-41.45 607.94,-57.46 49.73,-3.9 100.13,-4.51 150.6,-4.51 11.59,0 23.2,0.03 34.79,0.06 11.48,0.04 22.96,0.07 34.43,0.07"
         style="fill:#cdbcbb;fill-opacity:1;fill-rule:nonzero;stroke:none"
         id="path36" />
      <path
         d="m 7808.15,1960 c -27.21,0 -55.21,2.9 -79.17,3.1 -969.34,9.2 -2093.08,191.49 -3064.69,245.19 12.34,0.52 28.58,0.76 48.15,0.76 237.77,0 964.98,-35.56 1100.87,-44.91 719.99,-49.59 1015.5,-113.08 1633.16,-113.08 85.74,0 177.73,1.23 277.87,3.88 1.53,0.04 3.19,0.06 4.95,0.06 5.25,0 11.42,-0.15 18.15,-0.31 6.73,-0.15 14.02,-0.31 21.46,-0.31 28.01,0 58.28,2.19 70.06,14.8 16.45,17.63 16.11,95.83 17.84,119.87 71.82,997.02 188.37,1986.61 319.77,2999.26 l 11.08,-343.86 c -93.58,-1129.2 -175.76,-1834.47 -257.39,-2721.19 -3.95,-42.92 0.75,-104.97 -29.48,-135.66 -22.17,-22.6 -56.72,-27.6 -92.63,-27.6"
         style="fill:#c5b6b4;fill-opacity:1;fill-rule:nonzero;stroke:none"
         id="path38" />
      <path
         d="m 7657.36,2131.68 c -50.34,0 -105.11,8.74 -138.87,9.9 -30.34,1.05 -60.9,1.28 -91.55,1.28 -11.47,0 -22.95,-0.03 -34.43,-0.07 -11.59,-0.03 -23.2,-0.06 -34.79,-0.06 -50.47,0 -100.87,0.61 -150.6,4.51 -204.49,16.01 -403.41,42.04 -607.94,57.46 -115.86,8.73 -225.82,13.03 -360.84,26.36 -145.9,14.4 -303.37,26.84 -446.85,56.98 359.66,-12.57 673.01,-23.62 1002.58,-60.53 86.29,-9.67 182.31,-26.04 268.8,-33.57 117.73,-10.27 235.89,-13.48 353.95,-17.35 60.35,-1.98 120.7,-4.07 180.99,-7.38 47.97,-2.63 112.39,2.64 156.99,-14 -21.83,-18.25 -58.3,-23.53 -97.44,-23.53"
         style="fill:#c5b6b4;fill-opacity:1;fill-rule:nonzero;stroke:none"
         id="path40" />
      <path
         d="m 7925.08,7516.73 -511.62,46.83 c -536.25,35.44 -1015.1,81.31 -1567.82,141.44 -271.82,29.58 -554.06,40.1 -826.08,68.94 -120.2,12.74 -304.33,15.49 -422.88,37.79 l -218.04,-0.98 C 4234.05,6390.33 4109.48,4664.83 3975.5,3209.72 c -4.76,-51.77 4.49,-109.13 40.36,-146.75 30.43,-31.93 208.33,-40.01 252.26,-43.9 716.26,-63.42 1370.62,-116.98 2083.56,-186.95 375.48,-36.85 854.37,-47.95 1179.93,-64.11 41.92,603.93 131.79,1366.07 163.61,1970.62 45.2,858.87 192.01,1959.35 229.86,2778.1"
         style="fill:#faf7f5;fill-opacity:1;fill-rule:nonzero;stroke:none"
         id="path42" />
      <path
         d="m 6901.73,6758.36 c -29.17,18.63 -70.29,10.38 -102.68,7.84 -47.13,-3.67 -94.49,5.08 -141.03,11.56 -51.42,7.15 -103.21,11.17 -154.87,16.23 -52.76,5.16 -105.51,10.44 -158.27,15.72 -51.54,5.15 -103.09,10.3 -154.67,15.28 -51.45,4.98 -103.05,11.12 -154.72,13.44 -101.66,4.55 -204.21,-5.44 -305.02,12.25 -48.45,8.51 -96.48,11.91 -145.56,14.86 -48.86,2.94 -99.16,6.51 -144.87,25.44 -11.24,4.66 -17.68,-13.06 -6.5,-17.7 80.16,-33.2 170.64,-23.34 254.97,-34.45 22.56,-2.97 44.76,-8.1 67.34,-11.04 25.3,-3.29 50.77,-5.11 76.26,-6.06 50.81,-1.9 101.65,-0.39 152.47,-0.86 102.03,-0.93 204.04,-14.54 305.49,-24.64 103.99,-10.35 208.01,-20.63 312.05,-30.67 56.76,-5.47 113.2,-18.2 170.36,-19.24 20.33,-0.37 40.65,2.54 60.92,3.78 18.18,1.1 41.38,3.11 57.5,-7.17 10.22,-6.53 21.06,8.89 10.83,15.43"
         style="fill:#575a5c;fill-opacity:1;fill-rule:nonzero;stroke:none"
         id="path44" />
      <path
         d="m 6418.97,6905.07 c -46.67,0.31 -93.08,5.21 -139.54,9.16 -45.99,3.9 -91.84,4.38 -137.93,5.92 -23.37,0.77 -46.79,2.22 -69.9,5.89 -21.6,3.43 -42.52,9.55 -63.5,15.59 -40.81,11.72 -82.71,22.44 -125.13,12.79 -11.79,-2.69 -8.39,-21.24 3.49,-18.53 43.5,9.89 85.78,-3.63 127.4,-15.5 43.1,-12.3 85.87,-17.86 130.66,-19.17 45.35,-1.34 90.38,-2.11 135.62,-5.98 45.69,-3.92 91.37,-8.65 137.26,-8.96 12.06,-0.08 13.72,18.71 1.57,18.79"
         style="fill:#575a5c;fill-opacity:1;fill-rule:nonzero;stroke:none"
         id="path46" />
      <path
         d="m 6319.43,3578.86 c -12.39,-20.75 -34.56,-36.79 -55.67,-48.9 14.26,20.86 32.2,40.31 55.67,48.9 z m -135.98,102.03 c -24.9,-52.03 -76.8,-81.28 -131.4,-94.85 7.62,20.32 20.56,39.3 34.06,54.18 21.97,24.24 62.86,55.42 97.34,40.67 z m -1171.66,107.66 c 7.97,5.89 20.63,15.2 31.31,13.04 7.24,-1.46 11.03,-12.73 10.2,-19.98 -0.96,-8.45 -7.94,-15.95 -14.97,-21.52 -24.2,-19.21 -57.32,-28.15 -86.76,-35.75 6.77,9.44 13.86,18.64 21.46,27.39 11.65,13.43 24.43,26.23 38.76,36.82 z m 1765.4,-258.7 c -41.87,3.72 -83.33,10.53 -125.1,14.99 -26.43,2.8 -52.64,5.43 -79,1.44 -40.74,-6.18 -83.23,-19.81 -124.77,-15.39 -17.88,1.91 -30.32,9.2 -28.21,28.69 0.66,6.11 -5.24,11.16 -11.14,10.04 -27.83,-5.25 -53.72,-21.07 -79.6,-31.87 -9.41,-3.93 -24.44,-10.82 -38.89,-13.67 24.85,16.73 46.79,38.16 54.31,65.19 2.02,7.25 -3.18,13.22 -10.6,12.51 -41.44,-3.91 -71.11,-37.19 -92.04,-70.34 -2.37,-3.75 -2.1,-8.01 0.52,-11.5 l 0.78,-0.78 c -36.1,-17.93 -76.95,-30.83 -117.33,-30.83 -33.42,-0.01 -71.66,11.24 -79.41,48.38 -1.95,9.33 -1.96,18.8 -0.52,28.19 31.97,6.82 62.78,18.19 90.11,35.76 30.65,19.71 54.64,47.12 68.54,80.94 1.52,3.7 -0.05,8.79 -3.44,10.96 -36.98,23.7 -81.4,3.32 -111.37,-22.36 -26.13,-22.39 -49.73,-54.23 -59.09,-88.74 -57.08,-10.5 -122.25,-10.29 -176.81,9.13 -19.54,6.95 -38.44,15.62 -58.04,22.39 -13.74,4.75 -28.81,9.09 -43.61,8.41 -1.68,5.19 -3.54,10.33 -4.66,15.69 -1.2,5.7 -7.84,9.72 -13.34,6.77 -12.17,-6.56 -24.64,-12.41 -37.39,-17.63 0.29,4.29 0.66,8.56 1.69,12.73 1.58,6.36 -2.95,14.48 -10.6,12.51 -24.5,-6.31 -46.09,-20.83 -69.66,-29.69 -9.71,-3.64 -22.16,-7.87 -32.53,-4.64 -12.81,4 -15.62,19.52 -17.23,31.04 -0.72,5.15 -6.17,8.28 -11.01,7.52 -25.62,-4.06 -46.37,-27.86 -71.87,-29.8 -0.65,13.55 -4.6,26.65 -6.29,40.22 -0.46,3.71 -4.59,7.77 -8.48,7.65 -11.18,-0.33 -21.77,-2.52 -32.05,-5.74 4.24,3.99 8.79,7.63 12.8,11.83 8.19,8.6 -2.65,22.37 -12.19,14.4 -11.58,-9.7 -22.67,-19.88 -33.47,-30.38 -8.09,-6.38 -16.4,-12.45 -25.06,-17.9 -20.95,-13.2 -47.14,-26.78 -72.73,-23.38 -25.94,3.45 -39.86,26.65 -38.51,50.83 13.32,12.99 25.13,27.61 34.67,44.32 7.26,12.72 13.26,26.05 18.3,39.81 3.46,9.46 -7.59,15.53 -14.95,10.44 -25.69,-17.75 -51.01,-51.78 -56.46,-85.89 -12.54,-11.75 -26.58,-22.15 -42.32,-30.87 -38.58,-21.39 -81.8,-35.2 -124.49,-45.84 -36.14,-9.02 -76.31,-17.13 -113.39,-9.35 -32.58,6.84 -57.62,35.05 -50.88,70.15 2.38,12.47 9.32,24.53 15.99,35.43 5.45,1.25 10.93,2.19 16.35,3.58 33.55,8.59 70.91,18.79 98.38,40.97 19.92,16.09 30.85,46.51 9.3,66.78 -24.7,23.24 -62.55,-9.71 -80.24,-26.56 -20.86,-19.87 -40.44,-43.04 -55.91,-68.13 -56.34,-12.2 -113.4,-18.2 -170.5,-26.33 -12.01,-1.71 -8.52,-20.25 3.49,-18.53 51.9,7.39 103.8,12.89 155.12,22.96 -1.23,-2.53 -2.78,-4.94 -3.92,-7.49 -14.56,-32.54 -6.64,-74.41 22.91,-96.1 32.99,-24.17 80.78,-20.16 118.76,-13.89 44.89,7.41 90.07,21.06 132.03,38.52 24.82,10.33 48.39,23.35 69.19,39.65 1.54,-9.08 4.88,-17.87 10.56,-26.03 31.66,-45.46 90.34,-25.5 128.65,-1.27 l 0.93,0.67 c 2.28,-0.91 4.81,-1.13 7.14,-0.06 20.38,9.45 41.24,21.26 63.88,23.98 2.37,-12.29 5.85,-24.44 4.53,-37.04 -0.54,-5.25 3.65,-9.53 8.62,-10.17 30.32,-3.99 50.22,19.3 76.47,27.68 2.81,-12.13 7.98,-23.93 18.56,-31.07 11.1,-7.49 25.21,-7.42 37.83,-4.63 25.2,5.58 46.77,20.72 70.55,29.71 -0.3,-4.65 -0.66,-9.3 -1.79,-13.83 -2.11,-8.47 4.88,-14.4 12.93,-11.76 14.81,4.87 28.82,11.53 42.62,18.66 1.39,-4.02 2.74,-8.04 3.48,-12.23 0.87,-4.96 6.06,-8.55 11.01,-7.53 16.64,3.41 34.78,-3.98 50.13,-9.67 18.28,-6.78 36.09,-14.88 54.58,-21.09 29.38,-9.88 61.49,-13.38 92.33,-14.54 27.26,-1.02 55.37,0.36 82.98,4.69 -0.26,-2.65 -0.74,-5.29 -0.8,-7.95 -1.03,-43.64 29.17,-73.69 70.55,-81.6 47.2,-9.02 98.84,5.21 141.87,24.19 7.09,3.13 14.64,6.8 22.28,10.73 19.01,-6.11 43.02,1.25 60.79,7.74 26.44,9.65 52.13,26.01 79.47,33.81 4.58,-35.9 49.07,-38.74 81.06,-35.89 23.93,2.13 47.54,6.89 71.12,11.25 23.72,4.35 44.9,6.54 69.05,4.78 51.2,-3.73 101.8,-12.98 152.92,-17.51 12.09,-1.08 13.65,17.71 1.56,18.78"
         style="fill:#575a5c;fill-opacity:1;fill-rule:nonzero;stroke:none"
         id="path48" />
      <path
         d="m 6503.52,3304.92 c -25.6,14.91 -56.75,18.18 -85.78,19.97 -35.19,2.18 -70.49,1.01 -105.71,0.6 -37.04,-0.44 -73.32,2.74 -110.21,6.08 -51.05,4.65 -102.1,9.43 -153.16,14.24 -101.16,9.53 -202.33,19.15 -303.57,28.02 -51.11,4.48 -102.25,9.74 -153.43,13.34 -22.75,1.6 -45.99,2.79 -68.7,-0.08 -22.08,-2.8 -43.52,-9.03 -65.38,-13.07 -23.24,-4.28 -44.8,-4.35 -67.43,2.84 -19.05,6.06 -37.04,11.82 -57.28,11.84 -24.78,0.04 -49.93,-0.6 -74.69,-1.67 -26.45,-1.14 -52.94,-3.68 -79.38,-0.84 -12.06,1.29 -13.62,-17.49 -1.56,-18.8 21.61,-2.3 43.27,-1.05 64.89,0.11 23.5,1.26 46.97,0.87 70.47,1.81 19.8,0.79 38.3,0.53 57.31,-5.58 16.39,-5.28 32.54,-11 49.93,-11.8 43.81,-2.01 85.2,17.62 128.91,17.96 49.3,0.38 98.85,-6.62 147.92,-10.8 101.35,-8.63 202.62,-18.14 303.89,-27.69 49.57,-4.67 99.15,-9.35 148.74,-13.93 42.55,-3.94 85.45,-9.82 128.18,-10.74 38.13,-0.83 76.25,1.26 114.38,0.37 32.51,-0.76 71.82,-0.71 100.83,-17.6 10.43,-6.09 21.31,9.32 10.83,15.42"
         style="fill:#575a5c;fill-opacity:1;fill-rule:nonzero;stroke:none"
         id="path50" />
      <path
         d="m 7241.12,6251.29 c -17.08,1.31 -34.2,2.48 -51.35,1.4 l 0.77,4.24 c 2,11.12 4.33,20.95 7.14,30.04 15.08,48.9 39.03,71.29 73.21,68.45 h 0.03 l 0.91,-0.08 c 24.14,-2.34 41.98,-18.47 47.76,-43.16 1.8,-7.72 2.24,-15.35 2.66,-22.71 0.13,-2.47 0.27,-4.77 0.45,-7.07 l 0.17,-2.1 c 0.85,-11.13 1.75,-22.63 1.12,-34.35 l -0.06,-1.02 c -27.6,2.12 -55.2,4.24 -82.81,6.36 z m 133.47,-4.42 c 0.38,29.99 -9.97,60.16 -27.02,78.76 -20.86,22.75 -51.45,31.39 -73.42,34.62 -1.85,0.28 -3.7,0.49 -5.53,0.65 -57.13,4.73 -107.39,-50.35 -122.99,-106.33 -3.94,-14.18 -5.6,-29.92 -7.2,-45.14 l -0.9,-8.42 c -1.99,-17.98 1.4,-35.84 5.36,-54.07 l 1.09,-5.12 c 2.83,-13.39 5.5,-26.01 12.95,-36.88 8.34,-12.17 20.28,-20.45 32.93,-29.21 l 1.06,-0.73 c 15.26,-10.58 30.45,-20.25 48.49,-22.39 0.9,-0.11 1.83,-0.2 2.75,-0.28 16.76,-1.39 33.24,2.76 50.06,7.5 l 1.36,0.38 c 15.13,4.27 30.77,8.68 41.44,19.32 4.43,4.43 8.48,9.5 12.32,15.45 l -0.98,-0.69 c -3.88,-2.73 -6.93,-4.88 -9.8,-8.25 -7.64,-9.05 -16.6,-10.57 -25.28,-12.03 l -2.62,-0.45 c -13.54,-2.42 -24.78,-3.13 -35.35,-2.26 -9.68,0.81 -18.62,2.93 -27.36,6.5 -40.36,16.47 -52.93,57.84 -59.38,92.04 -3.79,20.14 -2.23,40.66 -0.01,59.82 0.42,3.51 0.9,7 1.37,10.5 l 0.55,3.96 0.09,0.73 c 55.64,-2.8 111.83,-6.1 167.36,-11.52 1.53,-0.16 3.08,-0.45 4.59,-0.57 2.14,-0.18 4.29,-0.33 6.43,-0.44 3.24,-0.17 4.24,0.76 4.56,1.07 1.1,1.03 2.96,4.15 3.08,13.48"
         style="fill:#040606;fill-opacity:1;fill-rule:nonzero;stroke:none"
         id="path52" />
      <path
         d="m 7018.78,6083.68 c -10.27,1.51 -22.86,3.35 -29.65,15.28 -5.42,9.52 -7.74,21.11 -7.08,35.44 0.59,12.66 2.14,25.33 3.64,37.58 1.29,10.66 2.65,21.6 3.32,32.28 0.73,11.74 2.17,23.41 3.56,34.69 1.81,14.57 3.66,29.63 3.91,44.41 l 0.06,4.33 c 0.39,21.07 0.78,42.86 -7.64,61.51 l -0.49,0.69 c -6.06,12.38 -16.13,22.37 -23.57,28.66 -8.15,6.89 -17.71,10.71 -29.24,11.66 -5.23,0.44 -10.8,0.3 -17.05,-0.42 l -1.89,-0.35 c -18.58,-0.29 -37.12,-4.71 -53.53,-13.43 -5.42,-2.88 -10.6,-6.2 -15.46,-9.94 -8.56,-6.56 -15.85,-14.31 -22.29,-22.94 l -1.43,-1.53 -2.26,4.25 -1.55,2.91 c -7.79,14.73 -15.16,28.64 -27.49,38.59 -10.17,8.2 -23.46,13.19 -38.43,14.43 -2.94,0.25 -5.88,0.33 -8.81,0.27 -5.42,-0.1 -10.74,-0.62 -15.95,-1.38 -5.14,-0.24 -10.26,-0.82 -15.24,-2.23 -14.32,-4.06 -26.52,-13.32 -38.34,-22.38 -10.38,-7.96 -20.9,-16.36 -28.4,-26.9 l -0.37,6.37 -0.67,11.25 c -0.56,9.41 -0.06,18.03 1.48,25.6 0.36,1.74 0.86,3.58 1.37,5.47 2.51,9.23 1.68,9.69 0.43,10.39 -1.26,0.68 -3.53,1.17 -6.75,1.44 -1.54,0.12 -3.07,0.19 -4.52,0.25 l -3.3,0.18 c -6.7,0.45 -13.81,0.4 -23.09,-0.15 l -6.71,-0.46 c -8.49,-0.63 -16.98,-1.26 -25.59,-0.55 -6.39,0.53 -12.08,1.75 -17.31,3.71 l 0.03,-1.68 -0.3,-2.14 c 14.44,-1.47 26.43,-7.47 33.6,-16.99 8.81,-11.73 7.46,-26.33 6.39,-38.05 -0.26,-2.79 -0.5,-5.42 -0.61,-7.93 -0.61,-14.6 -1.94,-29.24 -3.22,-43.42 -1.39,-15.32 -2.82,-31.14 -3.33,-46.7 -1.08,-32.74 -2.33,-62.28 -6.92,-92.06 -0.26,-1.67 -0.47,-3.46 -0.71,-5.3 -1.34,-11.24 -3.18,-26.52 -15.61,-34.39 -3.68,-2.32 -7.63,-3.63 -11.68,-4.32 6.31,-0.31 12.63,-0.58 18.94,-0.85 18.09,-0.77 36.47,-1.55 54.59,-3.05 10.25,-0.85 19.61,-1.86 28.49,-3.07 -1.93,0.91 -3.91,1.77 -5.95,2.65 -3.24,1.41 -6.45,2.81 -9.59,4.42 -12.39,6.35 -17.54,15.57 -17.22,30.84 0.12,5.55 0.16,11.1 0.19,16.64 0.11,16.68 0.22,33.92 2.63,51.09 0.54,3.88 1.23,7.75 1.93,11.63 1.19,6.63 2.43,13.48 2.69,19.99 0.13,3.27 0.09,6.52 0.05,9.74 -0.09,8.42 -0.18,17.04 2.32,26.12 l 0.75,2.72 c 2.29,8.23 4.46,16 4.99,24.22 l 0.2,3.33 c 0.33,5.72 0.97,11.61 2.21,17.55 3.35,4.78 6.87,9.44 10.66,13.88 2.7,3.15 5.51,6.22 8.49,9.1 10.41,10.05 22.81,17.79 35.25,25.17 12.74,7.57 26.77,15.12 41.5,13.57 3.96,-0.42 7.8,-1.48 11.58,-2.67 1.42,-0.45 2.79,-1.08 4.21,-1.57 5.34,-3.4 9.46,-7.91 12.11,-13.71 7.47,-16.35 6.2,-36.76 4.43,-54.6 -0.92,-9.23 -1.28,-18.73 -1.64,-27.92 -0.4,-10.46 -0.81,-21.21 -2.02,-31.95 l -2.6,-22.8 c -1.36,-11.8 -2.73,-23.58 -3.99,-35.37 -0.68,-6.37 -0.72,-13.12 -0.76,-19.64 -0.08,-13.14 -0.17,-26.71 -5.07,-40.18 -3.14,-8.72 -7.48,-20.67 -16.27,-27.79 -5.82,-4.7 -13.01,-6.73 -18.8,-8.36 l -1.32,-0.37 1.55,-0.12 h 0.01 c 12.92,-1.08 25.82,-2.73 38.31,-4.34 12.33,-1.58 25.02,-3.21 37.55,-4.25 l 8.98,-0.71 9.96,-0.79 c 5.34,-0.45 10.65,-0.93 15.94,-1.52 l 3.09,-0.31 c 4.82,-0.4 8.71,-0.26 11.68,1.58 -2.23,0.53 -4.58,0.9 -7.02,1.28 -5.93,0.94 -12.63,2 -19.2,5.68 -13.75,7.68 -14.64,20.49 -15.3,29.83 -0.86,12.4 -0.03,24.82 0.77,36.82 0.54,7.87 1.09,16.01 1.11,23.84 0.04,13.48 1.33,26.92 2.57,39.9 0.71,7.31 1.39,14.58 1.89,21.85 0.29,4.36 0.37,8.96 0.48,13.65 0.29,14.67 0.6,29.64 5.83,42.98 l -0.41,0.35 -0.38,1.28 0.35,1.27 0.29,1.16 c 0.68,2.56 1.24,4.65 1.95,6.71 0.75,2.21 1.92,4.32 2.99,6.46 6.3,8.11 14.66,14.71 22.87,21.07 5.88,4.55 11.77,9.12 18.11,12.99 11.14,6.79 23.62,11.38 36.5,13.42 4.8,0.76 9.67,1.16 14.51,0.65 4.43,-0.47 8.66,-1.78 12.79,-3.43 4.56,-3 8.69,-6.55 11.82,-10.94 5.54,-7.78 5.97,-17.06 6.33,-24.52 l 0.13,-2.66 c 0.66,-11.51 0.73,-21.75 0.19,-31.26 -0.49,-8.81 -1.21,-17.58 -1.94,-26.36 -0.93,-11.51 -1.9,-23.33 -2.31,-34.96 -0.31,-9.2 -0.78,-18.4 -1.24,-27.58 -0.55,-10.84 -1.09,-21.68 -1.39,-32.53 -0.11,-3.93 -0.14,-7.91 -0.16,-11.92 -0.1,-14.91 -0.19,-30.33 -4.4,-45.24 -2.68,-9.49 -7.3,-21.2 -19.31,-27.56 -4.43,-2.34 -8.96,-3.85 -13.34,-5.31 -1.71,-0.57 -3.35,-1.11 -4.96,-1.69 8.15,-0.5 16.3,-1.11 24.46,-1.79 8.09,-0.67 16.18,-1.4 24.28,-2.13 l 1.16,-0.11 c 7.98,-0.73 15.95,-1.45 23.91,-2.11 3.56,-0.3 6.98,-0.53 10.4,-0.77 3.72,-0.26 7.19,-0.49 10.65,-0.77 4.53,-0.38 9.03,-0.84 13.5,-1.47 l 2.5,-0.37 c 2.1,-0.31 4.1,-0.61 6.1,-0.78 2.25,-0.18 4.08,-0.14 5.61,0.14 -1.32,0.24 -2.68,0.43 -4.05,0.63"
         style="fill:#040606;fill-opacity:1;fill-rule:nonzero;stroke:none"
         id="path54" />
      <path
         d="m 6440.11,6128.54 c -2.84,1.57 -5.01,2.54 -7.15,3.49 -7.5,3.34 -15.85,7.06 -21.24,16.51 -6.73,11.81 -7.11,25.69 -6.6,37.72 1.22,28.4 2.89,55.89 4.97,81.73 0.63,8.01 1.03,16.02 1.34,24.04 2.71,15.48 5.21,29.98 6.65,44.33 1.3,12.99 2.34,25.99 3.39,39 l 1.52,18.79 c 0.18,2.12 0.58,4.71 1.03,7.57 0.94,6.04 2.11,13.54 1.11,18.57 l -0.25,1.18 -0.25,1.3 0.11,0.31 -1.04,0.26 c -1.54,0.82 -3.02,1.17 -4.89,1.33 -3.28,0.27 -7.25,-0.12 -11.05,-0.49 -3.33,-0.33 -6.5,-0.63 -9.29,-0.6 -5.8,0.05 -11.84,0.35 -19.03,0.94 -5.78,0.48 -11.54,1.09 -17.29,1.7 -5.39,0.57 -10.78,1.14 -16.17,1.6 6.04,-1.73 12.32,-4.72 17.51,-10.09 11.76,-12.17 10.55,-27.78 9.69,-39.18 l -0.51,-6.65 c -1.74,-22.36 -3.52,-45.45 -4.14,-67.98 -0.74,-26.48 -3.88,-53.79 -6.65,-77.87 -0.86,-7.46 -2.36,-14.41 -4.39,-20.91 l -0.82,-2.13 c -0.59,-1.72 -1.48,-3.17 -2.15,-4.82 -1.49,-3.04 -3.17,-5.97 -5.36,-8.58 -1.81,-2.13 -3.87,-4.04 -5.75,-6.11 -4.76,-5.23 -8.31,-11.47 -13.13,-16.63 -1.72,-1.85 -3.82,-3.75 -6.05,-5.56 -5.65,-3.46 -12.04,-6.09 -19.06,-8.08 l -1.45,-0.26 -1.01,-0.43 c -2.25,-0.57 -4.21,-1.41 -6.61,-1.84 -7.15,-1.29 -15.26,-2.76 -23.31,-2.09 -8.9,0.74 -16.06,3.88 -21.9,9.6 -9.43,9.22 -11.57,21.01 -12.95,32.3 -1.79,14.51 -1.39,28.47 -0.69,41.4 0.53,9.89 -0.43,19.75 -1.45,30.2 l -0.2,2.06 c -1.43,14.74 -1.13,29.06 0.97,45.07 3.31,25.26 5.47,51.48 6.58,80.17 0.32,8.17 1.68,15.95 3,23.48 1.08,6.07 2.18,12.31 2.62,18.36 0.77,10.72 -0.46,11.07 -1.56,11.37 -1.99,0.57 -4.23,0.94 -6.86,1.15 -5.59,0.47 -11.9,0.1 -18,-0.26 -4.24,-0.24 -8.39,-0.48 -12.25,-0.48 -18.15,0.04 -33.24,0.56 -47.44,1.64 l 0.05,-0.44 0.57,-0.04 c 24.65,-2.05 38.29,-26.36 36.51,-65.04 -0.91,-19.67 -3.43,-39.33 -5.88,-58.35 -2.7,-20.93 -5.48,-42.55 -6.02,-63.78 l -0.17,-6.3 c -0.85,-30.09 -1.91,-67.52 15.16,-91.58 9.37,-13.22 24.08,-20.76 43.75,-22.39 11.77,-0.97 25.14,0.27 38.66,3.6 4.75,1.17 9.38,2.37 13.86,3.68 9.81,2 19.43,4.72 27.85,10 6.99,4.39 12.85,10.34 18.63,16.23 3.54,3.62 7.09,7.23 10.29,11.15 2.87,3.51 5.4,7.26 7.69,11.16 l -0.44,-4.09 -1.3,-12.12 -0.13,-1.14 c -0.12,-1.01 -0.23,-1.84 -0.24,-2.68 -0.04,-1.83 -0.01,-3.68 0.01,-5.55 0.05,-6.85 0.13,-13.93 -1.86,-21.09 -0.68,-2.44 -1.56,-4.78 -2.45,-7.11 -1.41,-3.67 -2.62,-6.84 -2.48,-9.84 3.68,0.13 7.42,0.94 11.38,1.79 2.89,0.62 5.79,1.25 8.71,1.74 4.91,0.82 10.12,0.96 16.37,0.45 3.43,-0.29 6.85,-0.74 10.28,-1.2 l 2.69,-0.36 c 7.07,-0.94 14,-1.88 20.95,-2.45 5.7,-0.47 10.75,-0.65 15.51,-0.54 l -0.5,0.16"
         style="fill:#040606;fill-opacity:1;fill-rule:nonzero;stroke:none"
         id="path56" />
      <path
         d="m 6090.99,6599.82 c -7.22,3.84 -15.18,6.74 -23.5,8.62 -2.84,0.77 -5.71,1.4 -8.6,1.95 -2.75,0.53 -5.51,1.02 -8.29,1.11 -3.6,0.14 -7.17,-0.45 -10.72,-1.12 -9.02,-0.47 -17.82,-1.72 -25.74,-4.63 -19.71,-7.23 -34.9,-21.5 -47.79,-44.89 -13.87,-25.18 -17.45,-67.42 -19.38,-90.11 l -0.36,-4.34 -0.42,-4.81 -4.81,0.53 -4.32,0.48 -6.17,0.69 -11.6,1.29 -3.99,0.48 c -2.1,0.28 -4.17,0.54 -6.26,0.72 -5.58,0.46 -9.31,-0.02 -11.71,-1.54 l -1.99,-0.81 0.01,-0.08 0.08,-0.4 2.4,0.44 0.29,-0.81 -0.02,-0.85 -0.01,-0.11 c 5.82,0.04 12.26,-0.25 20.27,-0.92 4.07,-0.33 8.12,-0.73 12.19,-1.13 l 6.76,-0.65 4.09,-0.38 4.57,-0.43 -0.3,-4.57 -0.27,-4.12 c -0.68,-10.27 -1.48,-21.22 -3.12,-32.24 -1.16,-7.73 -1.13,-15.77 -1.08,-24.27 0.04,-9.04 0.09,-18.38 -1.39,-27.71 -2.88,-18.25 -3.95,-35.15 -5.08,-53.05 -1.14,-18.13 -2.33,-36.86 -5.51,-58.2 -0.71,-4.76 -0.52,-10.41 -0.33,-15.88 0.13,-4.18 0.26,-8.32 0.09,-12.26 -0.41,-8.92 -3.78,-18.81 -6.49,-26.76 -5.83,-17.15 -23.6,-20.39 -36.58,-22.77 -1.56,-0.28 -3.03,-0.54 -4.42,-0.82 4.23,-0.32 8.46,-0.29 12.91,-0.27 4.92,0.03 10,0.05 15.19,-0.38 1.19,-0.1 2.38,-0.22 3.57,-0.37 4.15,-0.53 8.32,-0.93 12.48,-1.27 3.49,-0.29 6.99,-0.54 10.49,-0.79 4.01,-0.28 7.68,-0.55 11.36,-0.85 l 4.24,-0.37 c 4.53,-0.43 9.02,-0.83 13.52,-1.2 22.02,-1.83 42.01,-2.88 60.99,-3.21 -2.37,0.84 -4.91,1.64 -7.55,2.48 -17.31,5.5 -40.69,12.94 -43.93,34.74 -0.58,3.93 -1.27,7.86 -1.96,11.77 -2.48,14.11 -5.04,28.61 -2.88,43.59 2.78,19.41 4.73,37.3 5.77,53.17 0.44,6.64 1.17,13.06 1.89,19.43 1.11,9.69 2.15,18.81 2.11,28.47 -0.03,9.88 0.97,20.2 1.95,30.18 0.74,7.65 1.51,15.52 1.75,22.77 0.35,10.77 1.53,21.57 2.61,30.84 l 0.49,4.2 0.54,4.66 4.67,-0.52 4.19,-0.47 c 8.24,-0.94 16.48,-1.78 24.75,-2.46 11.69,-0.97 22.15,-1.5 31.99,-1.63 0.18,1 0.26,1.88 0.25,2.84 l -0.22,0.03 c -2.46,-0.17 -4.91,-0.12 -7.37,0.09 -4.19,0.34 -8.16,1.11 -12,1.85 -1.75,0.33 -3.24,0.62 -4.72,0.87 -5.04,0.85 -10.28,1.32 -14.78,1.7 l -2.93,0.23 -1.71,0.14 -12.45,1 -4.31,0.34 -4.81,0.37 0.49,4.8 0.43,4.31 c 1.68,17.45 3.59,36.03 6.98,54.35 2.72,14.66 6.73,33.8 13.66,51.71 3.47,8.98 7.35,15.78 12.2,21.44 1.58,1.83 3.98,4.53 6.8,7.06 4.69,2.46 10.06,3.46 15.36,3.98 7.73,0.75 15.74,1.01 23.04,-1.63 6.41,-2.29 11.98,-7.33 14.08,-13.69 l -2.1,-0.97 -3.77,-1.74 c -7.59,-3.52 -12.35,-12.75 -12.38,-24.09 -0.06,-15.11 8.23,-24.69 23.95,-27.73 1.23,-0.23 2.45,-0.4 3.67,-0.5 10.92,-0.9 24.34,3.74 26.21,19.81 2.12,18.25 -7.77,36.02 -25.21,45.27"
         style="fill:#040606;fill-opacity:1;fill-rule:nonzero;stroke:none"
         id="path58" />
      <path
         d="m 5789.67,6476.42 c -6.9,4.42 -14.64,7.01 -23.01,7.71 -8.5,0.7 -17.36,-0.54 -26.33,-3.7 -10.68,-3.75 -20.63,-10.45 -29.37,-19.33 -1.86,-1.66 -3.78,-3.27 -5.61,-4.97 -2.59,-2.42 -4.81,-5.19 -7.29,-7.72 l -0.03,-0.02 c -3.08,-2.35 -5.74,-5.25 -8.17,-8.03 l -7.78,-8.95 -8.67,-9.96 0.4,13.2 0.36,11.85 0.03,1.05 c 0.29,9.78 0.6,19.9 2,30.1 l 0.4,2.76 c 1.78,11.89 0.68,12.12 -1.99,12.69 l -0.99,0.14 c -1.96,0.16 -4.43,-0.23 -7.04,-0.64 -2.26,-0.35 -4.49,-0.69 -6.7,-0.82 -7.48,-0.42 -14.9,-0.02 -22.06,0.38 l -6.57,0.34 c -3.36,0.15 -6.83,0.19 -10.34,0.22 -5.48,0.07 -11.14,0.13 -16.73,0.6 -7.15,0.59 -13.27,1.77 -18.69,3.61 l -0.66,0.22 -1.15,0.6 -0.04,0.53 c -1.09,-2.99 -1,-4.98 -0.56,-5.82 0.41,-0.81 1.65,-1.49 3.48,-1.94 2.12,-0.51 4.25,-0.93 6.35,-1.35 11.42,-2.28 24.32,-4.84 31.97,-19.55 6.92,-13.29 5.51,-28.82 4.39,-41.3 l -1.28,-13.76 c -0.91,-9.84 -1.82,-19.45 -2.57,-29.08 -1.53,-19.59 -2.93,-39.19 -4.34,-58.79 -1.13,-15.86 -2.28,-31.63 -3.46,-47.4 -0.28,-3.67 -0.51,-7.37 -0.73,-11.08 -0.68,-11.18 -1.37,-22.53 -3.41,-33.68 -1.15,-6.27 -4.65,-25.34 -24.47,-30.17 l -0.52,-0.13 -1.02,-0.12 c -7.33,-0.08 -14.9,-0.36 -23.49,-0.87 -0.52,-1.52 -0.64,-2.2 -0.67,-3.32 4.69,0.61 9.37,0.52 14.59,0.09 5.64,-0.47 11.26,-1.29 16.86,-2.12 3.54,-0.51 6.92,-1.02 10.29,-1.43 1.78,-0.2 3.57,-0.38 5.37,-0.53 7.25,-0.6 14.81,-0.73 22.12,-0.86 3.41,-0.06 6.44,-0.11 9.47,-0.19 11.14,-0.33 22.26,-0.84 33.39,-1.52 l 2.53,-0.44 c 1.39,-0.3 2.53,-0.55 3.68,-0.75 1,-0.17 2,-0.29 3.01,-0.38 2.34,-0.19 4.69,-0.18 7.04,-0.12 l 4.32,-0.43 c 1.96,-0.22 3.75,-0.41 5.55,-0.72 l 1.69,-0.21 c 1.95,-0.15 3.89,-0.1 5.83,-0.04 2.67,0.07 5.16,0.12 7.67,-0.06 l -0.05,0.41 c -8.31,1.08 -16.18,3.49 -23.79,5.82 -2.28,0.68 -4.54,1.38 -6.81,2.03 -9.3,2.68 -16.35,6.88 -22.17,13.24 l -0.81,0.87 -0.9,0.98 -0.26,1.29 -0.22,1.17 c -0.47,2.36 -1.05,4.69 -1.62,7.04 -1.56,6.29 -3.12,12.64 -3.19,19.75 -0.07,8.3 0.35,16.68 0.76,24.78 0.22,4.2 0.43,8.37 0.57,12.52 0.28,8.39 1.31,16.57 2.31,24.48 l 0.97,8.02 c 0.74,6.35 0.88,13.07 1.02,19.58 0.12,5.83 0.25,11.66 0.74,17.47 2.43,28.48 8.17,50.11 17.72,67.96 3.22,4.23 6.45,8.47 9.69,12.7 2.78,3.61 5.57,7.23 8.78,10.48 5.17,5.21 11.31,9.33 17.24,13.67 5.77,4.22 11.41,8.7 17.77,12 6.35,3.31 13.57,5.39 20.66,4.38 4.62,-0.65 9.56,-3.19 10.67,-7.72 0.64,-2.61 -0.03,-5.29 -0.47,-7.97 l -0.38,-0.73 c -1.94,-3.46 -3.99,-6.24 -5.97,-8.93 -4,-5.4 -6.39,-8.65 -6.2,-14.49 0.41,-12.26 12.7,-19.67 24.62,-20.66 l 2.17,-0.11 c 12.9,-0.23 24.44,9.27 29.39,24.2 5.98,18.03 -6.04,33.51 -19.29,41.98"
         style="fill:#040606;fill-opacity:1;fill-rule:nonzero;stroke:none"
         id="path60" />
      <path
         d="m 5405.81,6402.68 c -23.93,4.54 -48.14,7.43 -72.33,10.32 -14.11,1.68 -28.37,3.29 -42.5,1.93 1.98,10.87 4.27,20.55 7.02,29.47 15.08,48.89 39.03,71.28 73.21,68.45 h 0.03 l 0.91,-0.08 c 24.14,-2.34 41.98,-18.47 47.75,-43.17 1.81,-7.73 2.25,-15.35 2.67,-22.73 0.14,-2.36 0.28,-4.7 0.45,-7.04 l 0.16,-2.1 c 0.87,-11.15 1.76,-22.65 1.13,-34.35 l -0.18,-3.4 c -6.18,0.31 -12.25,1.54 -18.32,2.7 z m 69.1,1.61 c 0.38,29.99 -9.97,60.17 -27.02,78.77 -20.87,22.75 -51.44,31.39 -73.42,34.62 -1.85,0.28 -3.7,0.49 -5.53,0.64 -57.13,4.74 -107.39,-50.34 -122.98,-106.33 -3.95,-14.2 -5.61,-29.94 -7.21,-45.17 l -0.9,-8.39 c -1.99,-17.98 1.4,-35.83 5.36,-54.06 l 1.09,-5.13 c 2.84,-13.38 5.51,-26.01 12.95,-36.88 8.34,-12.17 20.28,-20.45 32.93,-29.2 l 1.06,-0.73 c 15.25,-10.58 30.45,-20.25 48.49,-22.39 0.92,-0.11 1.83,-0.21 2.74,-0.28 16.77,-1.39 33.25,2.75 50.07,7.5 l 1.36,0.38 c 15.13,4.27 30.77,8.68 41.44,19.32 4.44,4.43 8.48,9.49 12.32,15.45 l -0.98,-0.69 c -3.88,-2.74 -6.93,-4.88 -9.79,-8.25 -7.65,-9.06 -16.62,-10.57 -25.29,-12.04 l -2.61,-0.44 c -13.55,-2.42 -24.8,-3.13 -35.36,-2.26 -9.67,0.81 -18.62,2.93 -27.36,6.5 -40.36,16.47 -52.93,57.84 -59.37,92.04 -3.8,20.14 -2.25,40.65 0,59.81 0.41,3.52 0.87,7.01 1.35,10.52 l 0.48,3.47 0.85,-0.14 c 41.71,-4.86 83.52,-9.73 125.51,-9.82 10.52,-0.02 21.06,0.26 31.53,-0.68 5.01,-0.44 10.15,-0.88 15.18,-0.31 1.83,-0.14 3.65,-0.28 5.47,-0.37 3.24,-0.17 4.24,0.76 4.57,1.06 1.09,1.03 2.96,4.15 3.07,13.48"
         style="fill:#040606;fill-opacity:1;fill-rule:nonzero;stroke:none"
         id="path62" />
      <path
         d="m 5097.39,6519.65 -0.7,-6.38 c -1.74,-16.14 -3.55,-32.85 -13.95,-48.18 -7.54,-11.09 -17.27,-20.64 -28.41,-28.19 l -0.03,0.13 -1.22,-0.89 c -2.6,-1.72 -5.21,-3.45 -7.97,-4.92 -3.25,-1.76 -6.6,-3.16 -9.95,-4.56 -2.93,-0.59 -5.9,-0.93 -8.87,-1.15 -25.95,-1.9 -52.27,-3.48 -77.79,1.57 -1.98,0.39 -3.99,0.85 -5.9,1.51 l -0.01,0.44 -0.07,1.49 c -0.1,2.04 -0.19,4.07 -0.23,6.1 -0.3,14.78 1.8,29.18 3.84,43.11 0.66,4.59 1.32,9.04 1.89,13.51 1,7.82 2.12,15.64 3.25,23.46 1.7,11.83 3.45,23.98 4.69,35.85 1.33,12.62 1.86,25.75 2.37,38.45 0.3,7.12 0.58,14.23 1,21.3 0.09,1.56 0.04,3.57 -0.01,5.78 -0.18,8.78 -0.38,18.43 3.77,24.71 2.99,4.57 7.7,6.44 9.25,7.06 l 0.69,0.28 1.34,0.29 c 7.09,0.5 14.19,0.37 23.03,-0.36 5.01,-0.42 10.02,-0.98 14.86,-1.53 l 7.71,-0.83 c 22.89,-2.36 40.63,-8.23 52.71,-17.44 15.57,-11.89 19.16,-30.35 22.32,-46.65 l 0.64,-3.26 c 3.8,-19.21 4.36,-38.5 1.75,-60.7 z m 47.62,50.78 -1.57,5.23 -1.03,3.61 c -2.05,7.2 -4.17,14.64 -7.95,20.1 -3.02,4.37 -7.69,8.44 -12.21,12.38 -2.34,2.04 -4.64,4.05 -6.79,6.12 -6.82,6.55 -14.42,11.98 -23.2,16.61 -14.53,7.64 -30.51,10.43 -47.42,13.38 -3.4,0.58 -6.65,1.15 -9.89,1.76 -19.63,3.65 -38.59,6.2 -58.01,7.8 -7.33,0.61 -14.71,1.08 -22.13,1.4 -8.31,0.37 -16.61,0.97 -24.91,1.66 l -13.86,1.2 -13.78,1.19 c -8.88,0.74 -20.59,1.62 -32.28,1.88 l -1.19,-0.48 -1.42,-0.57 -0.52,0.12 c 2.14,-1.88 4.95,-3.32 8.81,-4.57 1.36,-0.44 2.88,-0.77 4.46,-1.12 5.66,-1.25 12.42,-2.75 17.38,-7.59 12.29,-11.94 9.45,-35 7.59,-50.24 -0.26,-2.03 -0.46,-3.72 -0.61,-5.22 -0.65,-6.33 -0.58,-12.56 -0.5,-19.15 0.04,-3.26 0.08,-6.41 0.03,-9.6 -0.08,-6.68 -1.06,-13.06 -2.01,-19.24 -0.54,-3.58 -1.07,-6.99 -1.42,-10.43 -1.16,-11.52 -1.11,-23.67 -1.06,-35.42 0.04,-8.88 0.08,-18.05 -0.39,-27.11 -2.23,-43.2 -7.54,-85.43 -13.25,-128.5 -0.72,-5.42 -1.28,-10.94 -1.85,-16.51 -1.4,-13.77 -2.83,-27.81 -6.49,-41.18 -2.55,-9.33 -7.45,-20.44 -22.75,-23.39 -5.18,-1 -10.14,-1 -14.93,-1 -3.05,-0.01 -5.96,0 -8.68,-0.27 3.74,-1.1 8.21,-1.99 13.33,-2.41 7.76,-0.65 15.96,-0.15 23.7,0.42 15.16,-1.34 28.8,-2.75 42.46,-4.16 23.09,-2.39 46.74,-4.83 70,-6.78 l 0.87,0.11 2.72,-0.31 1.97,-0.26 0.43,0.3 c -7.81,0.8 -16.18,2.03 -24.54,3.27 l -0.52,0.07 -0.93,0.25 c -10.77,4.09 -18.6,10.01 -23.72,17.74 -9.03,13.68 -7.33,32.1 -5.96,46.9 0.26,2.88 0.51,5.53 0.67,8 1.36,21.6 3.72,40.9 7.2,59 l 1.17,5.83 c 1.33,6.49 2.59,12.61 2.88,18.79 l -0.01,1.1 -0.11,4.52 -0.1,4.23 2.49,0.32 c 23.49,-1.68 46.97,-3.37 70.46,-5.05 6.53,-0.47 13.1,-0.66 19.59,-0.06 13.03,0.39 26.82,1.93 40.44,5.95 30.55,8.99 52.8,34.05 62.65,70.55 1.1,4.05 2.11,8.12 3.11,12.18 1.39,5.59 2.73,11.02 4.27,16.41 l 0.38,1.35 c 2.45,8.6 4.77,16.72 4.29,24.88 -0.45,7.77 -2.94,16.02 -5.36,24.01"
         style="fill:#040606;fill-opacity:1;fill-rule:nonzero;stroke:none"
         id="path64" />
      <path
         d="m 4104.59,8324.16 c -38.94,3.2 -82.86,3.5 -113.57,-42.56 -19.93,-29.89 -30,-73.79 -36.47,-116.31 -16.41,-107.94 -14.83,-218.7 -27.14,-327.58 -9.76,-86.36 -28.21,-171.17 -34.07,-257.93 -5.18,-76.56 -0.41,-152.45 -2.22,-228.93 -1.98,-83.44 -11.78,-166.93 -20.94,-250.12 -34.49,-312.98 -60.43,-627.34 -77.7,-941.73 31.55,106.05 43.02,222.75 54.07,337.18 53.68,556.1 107.37,1112.2 161.05,1668.3 1.75,18.06 3.72,37.02 10.39,52.15 13.18,29.87 38.1,32.48 59.14,31.92 313.84,-8.47 627.2,-24.28 939.98,-47.42 73.24,-5.41 147.31,-11.14 220.85,12.84 -286.13,63.05 -579.88,64.85 -870.35,88.65 -87.67,7.18 -175.35,14.28 -263.02,21.54"
         style="fill:#ffffff;fill-opacity:1;fill-rule:nonzero;stroke:none"
         id="path66" />
    </g>
  </g>
</svg>
