<?xml version="1.0" encoding="UTF-8" standalone="no"?>
<!-- Created with Inkscape (http://www.inkscape.org/) -->

<svg
   version="1.1"
   id="svg2"
   width="3466.6667"
   height="2666.6667"
   viewBox="0 0 3466.6667 2666.6667"
   sodipodi:docname="Tiny cartoon people with huge bath cosmetics.svg"
   inkscape:version="1.3 (0e150ed6c4, 2023-07-21)"
   xmlns:inkscape="http://www.inkscape.org/namespaces/inkscape"
   xmlns:sodipodi="http://sodipodi.sourceforge.net/DTD/sodipodi-0.dtd"
   xmlns="http://www.w3.org/2000/svg"
   xmlns:svg="http://www.w3.org/2000/svg">
  <defs
     id="defs6" />
  <sodipodi:namedview
     id="namedview4"
     pagecolor="#ffffff"
     bordercolor="#000000"
     borderopacity="0.25"
     inkscape:showpageshadow="2"
     inkscape:pageopacity="0.0"
     inkscape:pagecheckerboard="0"
     inkscape:deskcolor="#d1d1d1"
     inkscape:zoom="0.31387499"
     inkscape:cx="1734.7671"
     inkscape:cy="1333.3334"
     inkscape:window-width="1920"
     inkscape:window-height="1051"
     inkscape:window-x="-9"
     inkscape:window-y="-9"
     inkscape:window-maximized="1"
     inkscape:current-layer="g10" />
  <g
     id="g8"
     inkscape:groupmode="layer"
     inkscape:label="ink_ext_XXXXXX"
     transform="matrix(1.3333333,0,0,-1.3333333,0,2666.6667)">
    <g
       id="g10"
       transform="scale(0.1)">
      <path
         d="M 26000,0 H 0 V 20000 H 26000 V 0"
         style="fill:none;fill-opacity:1;fill-rule:nonzero;stroke:none"
         id="path12" />
      <path
         d="m 5377.94,4693.6 c 0,0 -3037.04,7826.5 -1040.93,9275.6 1334.2,968.5 2428.97,-1057.4 3440.18,-100.3 1284.05,1215.4 979.92,3226.8 3075.31,3418.3 2738.3,250.1 4893.7,-5417.1 7105,-4637.1 2683.4,946.3 5352.6,-974.9 3045.9,-7968.9 l -15625.46,12.4"
         style="fill:#d4e8ff;fill-opacity:1;fill-rule:nonzero;stroke:none"
         id="path14" />
      <path
         d="m 12404.2,18651.3 c -132.6,64.8 -270.8,109.1 -410.7,131.7 l 19.9,101.7 c 151.9,-24.5 301.5,-72.5 444.9,-142.5 z m -1244.2,-0.1 -61.4,87 c 134.9,78.2 283.5,129.2 441.8,151.2 l 17.3,-102 c -142.5,-19.9 -276.3,-65.7 -397.7,-136.2 z m 1908.8,-531.5 c -99.5,113.1 -202.2,213.3 -305.3,297.8 l 76.4,76.6 c 107.7,-88.3 214.6,-192.6 318,-310 z m -2460.4,-78.9 -102.1,45.7 c 74.7,137.4 157.7,258.8 246.4,361 l 89.5,-63.9 c -83.9,-96.5 -162.5,-211.9 -233.8,-342.8 z m 2948.9,-612.8 c -74.9,127.9 -151.4,247.9 -227.4,356.9 l 96.2,55.2 c 77.5,-111.2 155.5,-233.5 231.8,-363.7 z m -3247.4,-160.7 -110.5,25 c 39.8,144.2 83.5,280 130.2,403.6 l 107.7,-33.4 c -45.6,-120.9 -88.4,-253.9 -127.4,-395.2 z m 3633,-589.3 c -61.2,133.4 -122.9,261.1 -183.4,379.5 l 103.4,43.4 c 61.1,-119.6 123.4,-248.6 185.2,-383.3 z m -3804.2,-223.6 -112.7,14.7 c 23.1,144.6 48.4,283.6 75.3,413.2 l 111.9,-19.1 c -26.6,-128.1 -51.6,-265.7 -74.5,-408.8 z m 4131.9,-551.1 c -55,139.3 -106.9,266.6 -158.5,389.2 l 106.4,36.8 c 51.9,-123.3 104,-251.2 159.3,-391.1 z m -4235.5,-274 -113.4,9.1 c 14.19,144.9 29.63,284.8 45.89,415.8 l 113.21,-11.5 c -16.2,-130.3 -31.5,-269.4 -45.7,-413.4 z m 10202.7,-174.2 c -141.1,53.9 -283.9,87.3 -424.4,99.2 l 10.6,102.8 c 152.1,-12.9 306.2,-48.8 458,-106.9 z m -1242.7,-126.5 -65.3,84.6 c 140.1,88.8 281.6,154.6 420.5,195.5 l 35.2,-98.1 c -128.2,-37.8 -259.6,-99 -390.4,-182 z m -4426,-212.2 c -56.7,153.7 -103.4,278.9 -146.9,394.2 l 107.7,33.5 c 43.7,-115.6 90.5,-241 147.2,-394.9 z m 6391,-128.6 c -109.6,101.9 -223.2,191.8 -337.4,267.2 l 67,83.5 c 119.4,-78.9 237.8,-172.6 351.9,-278.5 z M 5407.51,14820.9 c -142.11,64.2 -281.89,105.1 -415.46,121.7 l 15.46,102.3 c 145.87,-18.2 297.52,-62.4 450.74,-131.5 z m 4561.35,-21.6 -113.69,6.2 c 9.87,150 19.66,286.3 29.94,416.6 l 113.6,-7.3 c -10.25,-129.9 -20.02,-265.8 -29.85,-415.5 z m 8383.94,-40.6 -88.5,65 c 106.8,119.5 208,222.3 309.4,314.3 l 80.6,-72.9 c -98.6,-89.5 -197.2,-189.7 -301.5,-306.4 z m -14173.75,-31.5 -69.08,82 c 136.01,94.1 277.56,161.9 420.72,201.6 l 33.33,-98.7 c -130.21,-36.1 -259.73,-98.3 -384.97,-184.9 z m 17328.35,-389.3 c -81.6,120.7 -167.2,234.9 -254.3,339.4 l 90.8,62.3 c 89.4,-107.2 177.1,-224.2 260.6,-347.7 z m -15383.17,-4.4 c -116.4,102.7 -230.86,193.5 -340.18,269.8 l 69.45,81.8 c 112.81,-78.7 230.63,-172.1 350.18,-277.6 z m 8736.87,-7.2 c -52.3,138.7 -103.5,277.6 -146.7,395.1 l 108,32.6 c 43.2,-117.3 94.3,-255.9 146.5,-394.4 z m -11266.77,-210.1 -95.99,55.6 c 89.5,127.1 181.78,241.8 274.27,341.1 l 87,-66.6 c -89.24,-95.8 -178.49,-206.9 -265.28,-330.1 z m 14225.77,-29.1 -95,56.9 c 95.2,130.5 180.3,243.4 260.2,345.2 l 92.8,-59.9 c -79.2,-100.8 -163.6,-212.7 -258,-342.2 z m -7900.17,-119.7 -113.75,5.2 c 7.67,137.9 15.29,275.9 23.43,416.4 l 113.73,-5.4 c -8.13,-140.4 -15.75,-278.3 -23.41,-416.2 z m -3188.49,-249.3 c -103.34,116.3 -199.53,219.8 -294.07,316.4 l 85.2,68.5 c 95.74,-97.8 193.08,-202.6 297.56,-320.1 z M 21921,13605.4 c -61.2,129.3 -126,254.9 -192.5,373.3 l 101.5,46.9 c 67.6,-120.4 133.5,-248.1 195.7,-379.4 z m -6744.9,-64.4 c -51.6,117.3 -104.9,245.3 -163,391.3 l 107.2,35 c 57.6,-144.9 110.5,-271.8 161.6,-388 z m 2144.5,-152.7 -95.1,56.8 c 80.9,111.5 164.5,229.7 249.1,349.1 l 95.8,-55.8 c -84.8,-119.7 -168.5,-238 -249.8,-350.1 z m -14148.86,0 -104.19,41.7 c 62.51,128.4 129.14,254.4 199.94,377.7 l 100.98,-47.8 c -69.66,-121.2 -135.2,-245.3 -196.73,-371.6 z m 6697.57,-254.2 -113.65,6.7 c 8.63,121 17.41,256.9 26.85,415.7 l 113.72,-5.6 c -9.45,-159.1 -18.26,-295.4 -26.92,-416.8 z m -2583.39,-76.7 c -104.2,129.1 -191.03,235.1 -273.28,333.5 l 90.79,62.4 c 82.63,-98.9 169.82,-205.4 274.4,-334.9 z m 14948.18,-227 c -45.9,133.7 -94.9,265.4 -145.5,391.4 l 107,35.3 c 51.3,-127.5 100.8,-260.7 147.2,-396.1 z m -6651.4,-45.8 c -73.7,103.1 -146.7,224.5 -223.3,371.1 l 103,44.2 c 74.3,-142.5 145,-259.9 215.9,-359.1 z m 1185.5,-71 -83.7,70.1 c 86.3,84.8 178.9,189.3 283,319.7 l 92.2,-60.5 c -106.7,-133.7 -202.1,-241.4 -291.5,-329.3 z m -13912.63,-98.4 -108.91,30.2 c 45.25,134.2 94.9,267.6 147.56,396.6 l 106.81,-35.9 c -51.91,-127.1 -100.85,-258.6 -145.46,-390.9 z m 13309.63,-222.4 c -88.7,0 -175.7,24 -258.6,71.3 l 60.7,87.4 c 124.6,-71.3 247.1,-71.4 379.4,-14.6 l 49,-93.2 c -78.2,-33.8 -155.8,-50.9 -230.5,-50.9 z m -8338.05,-8.5 c -92.57,113.3 -188.59,233.1 -271.33,336.5 l 92.19,60.6 c 82.58,-103.2 178.4,-222.7 270.67,-335.7 z m 1959.46,-84 -112.95,13.2 c 17.49,123.3 33.17,258.2 47.92,412.6 l 113.46,-8.9 c -14.89,-155.8 -30.73,-292.2 -48.43,-416.9 z M 22468,12031.2 c -33.7,136.4 -70.1,271.6 -108.1,401.8 l 110.1,26.5 c 38.4,-131.6 75.1,-268 109.2,-405.7 z M 2636.45,11814 l -111.8,19.7 c 29.5,137.8 62.88,275.2 99.22,408.4 l 110.56,-24.8 c -35.88,-131.5 -68.84,-267.2 -97.98,-403.3 z m 5766.05,-84.6 c -90.72,91.5 -187.68,197 -296.41,322.2 l 89.5,63.9 c 107.19,-123.5 202.59,-227.3 291.65,-317.2 z m 1160.66,-251.2 -101.42,46.9 c 52.13,92.6 98.22,221 136.99,381.8 l 111.26,-22.1 c -41.43,-171.8 -89.45,-304.8 -146.83,-406.6 z m -395.13,-245.7 c -158.25,22.6 -272.72,87.9 -431.28,200.7 l 71.98,80 c 138.91,-98.5 239.24,-157.6 371.43,-178 z m 13469.37,-14.6 c -23.7,137.8 -49.7,275.1 -77.3,408 l 111.9,19.1 c 27.8,-133.9 54.1,-272.3 77.9,-411.1 z m -20132.46,-221.5 -113.33,10.3 c 15.48,139.7 34.33,279.2 56.06,414.8 l 112.71,-14.8 c -21.49,-134.1 -40.15,-272.2 -55.44,-410.3 z m 20247.46,-600.1 c -15.3,138.6 -32.5,277.1 -51.2,411.6 l 112.9,13 c 18.9,-135.4 36.3,-274.8 51.6,-414.4 z M 2450.81,10171 l -113.86,2.1 c 3.17,140.2 9.28,280.5 18.18,417.2 l 113.69,-6 c -8.81,-135.4 -14.87,-274.5 -18.01,-413.3 z M 22820.4,9569.9 c -7.8,138.7 -17.4,277.8 -28.5,413.6 l 113.5,7.7 c 11.2,-136.6 20.9,-276.5 28.8,-416 z M 2350.75,9338.5 c -7.56,139.7 -12.56,280.1 -14.89,417.1 l 113.88,1.6 c 2.3,-135.9 7.27,-275.1 14.76,-413.7 z M 22847.4,8741.2 c -1.3,138.9 -4.3,278.4 -8.7,414.6 l 113.9,3 c 4.4,-136.9 7.3,-277.1 8.7,-416.6 z M 2424.54,8506.6 c -16.98,139 -31.76,278.7 -43.93,415.4 l 113.52,8.3 c 12.08,-135.7 26.75,-274.4 43.6,-412.3 z m 20527.16,-597.7 -113.9,3 c 4.5,138.8 7.5,278.3 9.1,414.7 l 113.9,-1.1 c -1.6,-137 -4.7,-277.2 -9.1,-416.6 z M 2551.38,7680.3 c -25.33,137.5 -48.78,276.3 -69.69,412.3 l 112.8,14.2 c 20.77,-135.1 44.07,-272.9 69.22,-409.5 z m 20357.72,-603.5 -113.7,6.5 c 9.6,138.2 18.1,277.5 25.1,414.2 l 113.8,-4.8 c -7.1,-137.3 -15.6,-277.2 -25.2,-415.9 z M 2726.02,6861.3 c -32.89,135.9 -64.19,273.3 -93.02,408.5 l 111.81,19.6 c 28.66,-134.3 59.76,-270.9 92.45,-406 z m 20110.58,-614.8 -113.4,9.7 c 14.4,138.2 27.7,277.3 39.6,413.3 l 113.6,-8.2 c -12,-136.5 -25.4,-276.1 -39.8,-414.8 z M 2944.99,6051.2 c -39.86,133.4 -78.52,269.3 -114.9,403.9 l 110.61,24.5 c 36.18,-133.8 74.6,-268.8 114.22,-401.4 z m 19791.81,-632.6 -113.1,12.7 c 18.8,137.6 36.6,276.3 53,412.1 l 113.2,-11.2 c -16.4,-136.3 -34.3,-275.4 -53.1,-413.6 z M 3207.65,5251.5 c -46.56,129.4 -92.63,263.4 -136.93,398.4 l 109.17,29.4 c 44.01,-134.1 89.77,-267.2 136.03,-395.7 l -108.27,-32.1"
         style="fill:#dce6ff;fill-opacity:1;fill-rule:nonzero;stroke:none"
         id="path16" />
      <path
         d="m 23458.5,7178.9 c -945.1,148.2 -790.8,-1190.4 -2138,-1190.4 -1231.7,0 -1625.8,5097.8 -2521.9,3640.6 -4594.3,-7470.8 -1926.5,3177.1 -5580.3,3312.4 -1652.1,61.2 -2753,-1802.2 -3159,-5101.3 C 9470.85,4857.7 8106.09,10115 6701.6,9626.2 5808.97,9315.5 5911.2,5988.5 4679.5,5988.5 3332.34,5988.5 3486.56,7327.1 2541.47,7178.9 1523.93,7019.4 1237.52,4650 1237.52,4650 H 24756.9 c 0,0 -280.8,2369.4 -1298.4,2528.9"
         style="fill:#eef7ff;fill-opacity:1;fill-rule:nonzero;stroke:none"
         id="path18" />
      <path
         d="m 22621.6,5729.9 c -869.5,63.3 -727.6,-508.4 -1966.9,-508.4 -1133.2,0 -1102,1281.1 -1860.3,1553.4 -1396.4,501.4 -2547.7,-2036.2 -3089.1,-762.6 -1028.2,3379.3 -4027.1,5074 -5410.6,0 C 9753.27,4738.7 8487.24,7011.2 7205.62,6774.9 6416.74,6629.5 6478.48,5221.5 5345.34,5221.5 4105.99,5221.5 4247.87,5793.2 3378.41,5729.9 2442.29,5661.8 2162.68,4650 2162.68,4650 H 23837.3 c 0,0 -279.6,1011.8 -1215.7,1079.9"
         style="fill:#dce6ff;fill-opacity:1;fill-rule:nonzero;stroke:none"
         id="path20" />
      <path
         d="m 1237.52,4650 c 0,0 -165.29,-821.3 519.49,-1027 936.63,-281.2 6434.56,-1020.2 5098.93,-1581.8 -753.98,-317 384.89,-747.4 4057.26,-905.9 3672.4,-158.597 9974,462.5 7854.8,1381.4 -2119.1,918.9 6514.8,221.9 5988.9,2133.3 H 1237.52"
         style="fill:#cfddf9;fill-opacity:1;fill-rule:nonzero;stroke:none"
         id="path22" />
      <path
         d="m 21714.1,4058.9 c 0,-266.3 -1040.7,-482.2 -2324.4,-482.2 -1283.7,0 -2324.4,215.9 -2324.4,482.2 0,266.3 1040.7,482.2 2324.4,482.2 1283.7,0 2324.4,-215.9 2324.4,-482.2"
         style="fill:#ce4abf;fill-opacity:1;fill-rule:nonzero;stroke:none"
         id="path24" />
      <path
         d="m 22049.9,9950 c 0.4,-57.7 -1.1,-115.8 -4.5,-174.3 L 21714.1,4058.9 H 17065.3 L 16734,9775.7 c -3.4,58.5 -4.9,116.6 -4.5,174.3 0.2,43.6 1.6,86.9 4,130 42.6,774.2 419.1,1464.5 990.8,1924.3 454.8,365.7 1033.2,585.6 1665.4,585.6 632,0 1210.2,-219.7 1664.9,-585.2 76.7,-61.6 149.9,-127.3 219.2,-196.9 447.7,-449.5 735.2,-1057.1 772.1,-1727.8 2.4,-43.1 3.8,-86.4 4,-130"
         style="fill:#ce4abf;fill-opacity:1;fill-rule:nonzero;stroke:none"
         id="path26" />
      <path
         d="m 22049.9,9950 c -0.2,43.6 -1.6,86.9 -4,130 -36.9,670.7 -324.4,1278.3 -772.1,1727.8 -69.3,69.6 -142.5,135.3 -219.2,196.9 -474.1,287 -1046.4,455.2 -1664.9,455.2 -618.6,0 -1191.2,-168.4 -1665.4,-455.6 -571.7,-459.8 -948.2,-1150.1 -990.8,-1924.3 -2.4,-43.1 -3.8,-86.4 -4,-130 h 1649 c 0,-464.3 492,-840.7 1011.2,-840.7 519.2,0 1012.6,376.4 1012.6,840.7 h 1647.6"
         style="fill:#a523a2;fill-opacity:1;fill-rule:nonzero;stroke:none"
         id="path28" />
      <path
         d="m 21273.8,11807.8 c -480.4,482.1 -1145.5,782.1 -1884.1,782.1 -1426.9,0 -2579.7,-1119.9 -2656.2,-2509.8 H 18549 c 0,-464.4 376.4,-840.8 840.7,-840.8 464.3,0 840.7,376.4 840.7,840.8 h 1815.5 c -36.9,670.6 -324.4,1278.2 -772.1,1727.7"
         style="fill:#7640cc;fill-opacity:1;fill-rule:nonzero;stroke:none"
         id="path30" />
      <path
         d="m 19389.7,5258.2 v 0 c -737.4,0 -1335.3,597.8 -1335.3,1335.3 v 605.8 c 0,737.5 597.9,1335.3 1335.3,1335.3 v 0 c 737.5,0 1335.3,-597.8 1335.3,-1335.3 v -605.8 c 0,-737.5 -597.8,-1335.3 -1335.3,-1335.3"
         style="fill:#fcb4b4;fill-opacity:1;fill-rule:nonzero;stroke:none"
         id="path32" />
      <path
         d="m 19389.7,5911.9 v 0 c -443.2,0 -802.5,359.2 -802.5,802.4 v 364.1 c 0,443.2 359.3,802.5 802.5,802.5 v 0 c 443.2,0 802.5,-359.3 802.5,-802.5 v -364.1 c 0,-443.2 -359.3,-802.4 -802.5,-802.4"
         style="fill:#f49f9f;fill-opacity:1;fill-rule:nonzero;stroke:none"
         id="path34" />
      <path
         d="M 10381.7,4058.9 H 5090 v 4834.2 c 0,1461.3 1184.58,2645.9 2645.83,2645.9 h 0.01 c 1461.25,0 2645.86,-1184.6 2645.86,-2645.9 V 4058.9"
         style="fill:#3a72aa;fill-opacity:1;fill-rule:nonzero;stroke:none"
         id="path36" />
      <path
         d="m 10381.7,4058.9 c 0,-266.3 -1184.61,-482.2 -2645.86,-482.2 -1461.26,0 -2645.84,215.9 -2645.84,482.2 0,266.3 1184.58,482.2 2645.84,482.2 1461.25,0 2645.86,-215.9 2645.86,-482.2"
         style="fill:#3a72aa;fill-opacity:1;fill-rule:nonzero;stroke:none"
         id="path38" />
      <path
         d="M 8811.48,11277.9 H 6660.19 v 1226.8 h 2151.29 v -1226.8"
         style="fill:#23659b;fill-opacity:1;fill-rule:nonzero;stroke:none"
         id="path40" />
      <path
         d="m 8811.48,11277.9 c 0,-142.6 -481.58,-258.2 -1075.64,-258.2 -594.07,0 -1075.65,115.6 -1075.65,258.2 0,142.7 481.58,258.3 1075.65,258.3 594.06,0 1075.64,-115.6 1075.64,-258.3"
         style="fill:#23659b;fill-opacity:1;fill-rule:nonzero;stroke:none"
         id="path42" />
      <path
         d="m 8811.48,12504.7 c 0,-142.6 -481.58,-258.3 -1075.64,-258.3 -594.07,0 -1075.65,115.7 -1075.65,258.3 0,142.7 481.58,258.3 1075.65,258.3 594.06,0 1075.64,-115.6 1075.64,-258.3"
         style="fill:#3a72aa;fill-opacity:1;fill-rule:nonzero;stroke:none"
         id="path44" />
      <path
         d="m 8069.66,12478.6 h -667.64 v 1162.2 h 667.64 v -1162.2"
         style="fill:#23659b;fill-opacity:1;fill-rule:nonzero;stroke:none"
         id="path46" />
      <path
         d="m 8069.66,12484.8 c 0,-44.4 -149.46,-80.4 -333.82,-80.4 -184.37,0 -333.82,36 -333.82,80.4 0,44.4 149.45,80.4 333.82,80.4 184.36,0 333.82,-36 333.82,-80.4"
         style="fill:#23659b;fill-opacity:1;fill-rule:nonzero;stroke:none"
         id="path48" />
      <path
         d="m 6774.26,13272.1 c -80.34,0 -128.6,4.4 -135.08,5 -118.93,11.6 -205.94,117.4 -194.33,236.3 11.59,118.8 117.05,205.7 235.76,194.4 9.16,-0.8 468.16,-38.1 996.74,182.2 41.28,17.2 83.52,35.4 124.38,52.9 289.54,124.6 588.91,253.4 997.5,251.3 452.2,-2.5 945.99,-165.8 1553.97,-514 103.7,-59.4 139.6,-191.6 80.2,-295.3 -59.4,-103.7 -191.6,-139.6 -295.3,-80.2 -1168.93,669.5 -1630.69,470.8 -2165.33,240.7 -41.98,-18 -85.4,-36.7 -128.99,-54.9 -456.28,-190.1 -865.88,-218.4 -1069.52,-218.4"
         style="fill:#3a72aa;fill-opacity:1;fill-rule:nonzero;stroke:none"
         id="path50" />
      <path
         d="M 9083.48,5678.6 H 6388.19 V 8373.9 H 9083.48 V 5678.6"
         style="fill:#fcb4b4;fill-opacity:1;fill-rule:nonzero;stroke:none"
         id="path52" />
      <path
         d="m 17346.4,4769.7 c 0,-461.3 -154.7,-867 -425.4,-1198.9 -348.5,-427.2 -889.2,-732 -1539.8,-875.8 -638.8,-141.2 -5342,-778.8 -6723.1,1393.2 -524.3,824.6 -127.8,2099.1 212.9,2512.8 95.2,115.6 178.9,194.4 256.2,242.6 220.7,137.8 389.3,26.5 625.4,-187.8 1710.3,-1551.5 3158.4,164.3 3158.4,164.3 l 2284.7,-155 c 78.7,9.9 158.9,15 240.2,15 1055.1,0 1910.5,-855.3 1910.5,-1910.4"
         style="fill:#f7931e;fill-opacity:1;fill-rule:nonzero;stroke:none"
         id="path54" />
      <path
         d="m 17346.4,4769.7 c 0,-461.3 -154.7,-867 -425.4,-1198.9 -329.1,-271.1 -753.8,-468.3 -1239.8,-575.8 -638.8,-141.2 -5342,-778.8 -6723.1,1393.2 -502,789.5 -159.9,1991.4 169.1,2455.4 220.7,137.8 389.3,26.5 625.4,-187.8 1710.3,-1551.5 3158.4,164.3 3158.4,164.3 l 2284.7,-155 c 78.7,9.9 158.9,15 240.2,15 1055.1,0 1910.5,-855.3 1910.5,-1910.4"
         style="fill:#fbb03b;fill-opacity:1;fill-rule:nonzero;stroke:none"
         id="path56" />
      <path
         d="m 16366.8,7939.6 c 0,-476.8 -174.6,-912.8 -463.4,-1247.5 -350.4,-406 -868.7,-663 -1447,-663 -1055.2,0 -1910.5,855.3 -1910.5,1910.5 0,578.3 257,1096.6 663,1447 334.7,288.8 770.7,463.4 1247.5,463.4 1055.1,0 1910.4,-855.3 1910.4,-1910.4"
         style="fill:#f7931e;fill-opacity:1;fill-rule:nonzero;stroke:none"
         id="path58" />
      <path
         d="m 16366.8,7939.6 c 0,-476.8 -174.6,-912.8 -463.4,-1247.5 -334.6,-288.5 -770.4,-463 -1247,-463 -1055.2,0 -1910.5,855.3 -1910.5,1910.5 0,476.6 174.5,912.4 463,1247 334.7,288.8 770.7,463.4 1247.5,463.4 1055.1,0 1910.4,-855.3 1910.4,-1910.4"
         style="fill:#fbb03b;fill-opacity:1;fill-rule:nonzero;stroke:none"
         id="path60" />
      <path
         d="m 16245.1,8621 c -265,182.3 -300.9,-1156 12.2,-1302 316.9,-147.8 1022,249.8 1220.8,1009.7 44.7,170.6 8.2,207.1 -145.3,152.1 -246.7,-88.3 -719.7,-112.9 -1087.7,140.2"
         style="fill:#f7931e;fill-opacity:1;fill-rule:nonzero;stroke:none"
         id="path62" />
      <path
         d="m 15381.2,8365.5 c 0,-154.6 -125.3,-279.9 -279.9,-279.9 -154.6,0 -279.9,125.3 -279.9,279.9 0,154.5 125.3,279.8 279.9,279.8 154.6,0 279.9,-125.3 279.9,-279.8"
         style="fill:#1d3f70;fill-opacity:1;fill-rule:nonzero;stroke:none"
         id="path64" />
      <path
         d="M 8040,5810 H 3720 V 2070 h 4320 c 1032.77,0 1870,837.2 1870,1870 0,1032.8 -837.23,1870 -1870,1870"
         style="fill:#eb5648;fill-opacity:1;fill-rule:nonzero;stroke:none"
         id="path66" />
      <path
         d="m 5590,3940 c 0,-1032.8 -837.2,-1870 -1870,-1870 -1032.8,0 -1870,837.2 -1870,1870 0,287.2 64.8,559.4 180.5,802.5 40.9,86 88.1,168.3 141.3,246.4 C 2508,5484.4 3076,5810 3720,5810 c 1032.8,0 1870,-837.2 1870,-1870"
         style="fill:#ce3932;fill-opacity:1;fill-rule:nonzero;stroke:none"
         id="path68" />
      <path
         d="m 4908.4,3211.6 c -144.2,-296.3 -542.6,-552.3 -969,-622.4 -82.4,-13.5 -164.2,-20.3 -244.7,-20.3 -383.6,0 -741.2,152 -1026,440.4 -386,391 -383.2,779.4 -312.8,1036.3 122.8,448.8 535,806.1 862.6,892.3 328.6,86.4 698.9,8.7 966.4,-202.8 263.8,-208.6 404.1,-525.3 395.1,-891.7 -8.6,-348.6 -186.6,-601.8 -488.3,-694.8 -321.9,-99.2 -708.2,9.9 -879.5,248.5 -151.6,211.1 -180.8,449.3 -78.2,637.2 89.6,164.1 263.2,256.1 464.3,245.6 193.3,-9.9 331.5,-110.2 369.6,-268.2 35.7,-148 -28.9,-312.6 -150.3,-382.9 -31.1,-18 -70.9,-7.4 -88.9,23.6 -17.9,31.1 -7.3,70.9 23.7,88.8 72.4,41.9 111.5,147.3 89.2,240 -24.6,101.9 -113.4,161.9 -249.9,168.9 -150.2,7.6 -278.5,-58.9 -343.6,-178 -78.1,-143.1 -52,-329.7 69.7,-499.2 138.4,-192.7 468.3,-282.5 735.6,-200.1 143.9,44.4 386.8,177.9 396.6,573.8 8,324.6 -114.8,603.9 -345.7,786.5 -236.1,186.7 -562.9,255.3 -852.8,179 -285.5,-75.1 -661.2,-402.7 -770.2,-800.8 -88,-321.2 8.9,-636.1 280,-910.6 314.1,-318.2 725,-454.3 1157,-383.2 387.3,63.7 746.4,290.2 873.3,550.9 165.8,340.9 248.6,918.5 38.3,1381.3 -147.1,323.8 -413.6,540 -791.9,642.6 -473.4,128.3 -942.3,77.1 -1393.8,-152.4 -337.2,-171.4 -535.2,-381.4 -537.1,-383.5 -20.1,-21.6 -51.5,-26.4 -76.6,-13.9 40.9,86 88.1,168.3 141.3,246.4 97.4,78.4 237.2,177.3 413.5,266.9 330.8,168.1 857.2,332.7 1486.7,161.9 417.5,-113.2 712.3,-353.5 876.3,-714.3 227.6,-501 138.9,-1124.5 -39.9,-1491.8"
         style="fill:#eb5648;fill-opacity:1;fill-rule:nonzero;stroke:none"
         id="path70" />
      <path
         d="m 23640.6,2977.1 -1806.3,2.7 c -202.2,0.3 -365.8,164.5 -365.4,366.6 l 1.5,782.5 2538.2,-3.7 -1.5,-782.8 c -0.4,-202.1 -164.4,-365.6 -366.5,-365.3"
         style="fill:#fcb4b4;fill-opacity:1;fill-rule:nonzero;stroke:none"
         id="path72" />
      <path
         d="m 24462.1,9272.3 c 106.5,-35 173.3,-140.4 159.4,-251.6 l -22.5,-179.8 -590.4,-4715.7 -2538.3,3.7 -572.2,4717.7 -19.9,163.2 c -13.7,113.5 56.4,220.4 166.1,253.1 556,165.6 1130.5,247.9 1704.8,247.1 524.6,-0.8 1300.7,-102.2 1713,-237.7"
         style="fill:#ce3932;fill-opacity:1;fill-rule:nonzero;stroke:none"
         id="path74" />
      <path
         d="m 24599,8840.9 -590.4,-4715.7 -2538.3,3.7 -572.2,4717.7 c 601,196 1225.7,293.5 1850.3,292.6 617.6,-1 1235,-98.1 1829.7,-291.6 l 20.9,-6.7"
         style="fill:#eb5648;fill-opacity:1;fill-rule:nonzero;stroke:none"
         id="path76" />
      <path
         d="m 23213.8,3472.1 c -36.1,118.8 -235,210 -475.2,210.4 -240.2,0.3 -439.4,-90.3 -475.9,-209 l -793.6,1.2 -0.2,-78.1 2538.3,-3.7 0.2,78.1 -793.6,1.1"
         style="fill:#f49f9f;fill-opacity:1;fill-rule:nonzero;stroke:none"
         id="path78" />
      <path
         d="m 23860.4,6911.2 -2231.2,3.2 -92,933.4 2418.8,-3.5 -95.6,-933.1"
         style="fill:#fcb4b4;fill-opacity:1;fill-rule:nonzero;stroke:none"
         id="path80" />
      <path
         d="m 18872.9,3170 c 0,-845 -1169.7,-1530 -2612.5,-1530 -1442.9,0 -2612.6,685 -2612.6,1530 0,845 1169.7,1530 2612.6,1530 1442.8,0 2612.5,-685 2612.5,-1530"
         style="fill:#9358e0;fill-opacity:1;fill-rule:nonzero;stroke:none"
         id="path82" />
      <path
         d="m 18050,3170 c 0,-530.2 -801.3,-960 -1789.6,-960 -988.4,0 -1789.7,429.8 -1789.7,960 0,530.2 801.3,960 1789.7,960 988.3,0 1789.6,-429.8 1789.6,-960"
         style="fill:#7640cc;fill-opacity:1;fill-rule:nonzero;stroke:none"
         id="path84" />
      <path
         d="m 15415.5,3211.7 v 0 c -39.2,20 -101.5,39 -190.7,58.2 -44,9.2 -56.5,17.2 -60.2,20.5 -8.2,7 -9.2,12.6 -9.2,16.3 0,9.6 3.9,17.3 12.2,24.3 8.9,7.4 23.3,11.2 42.7,11.2 24.4,0 43.4,-5.5 56.6,-16.4 13,-10.7 21.8,-29 26.2,-54.2 1.2,-7.5 7.8,-13 15.6,-12.4 l 187.7,10.9 c 4.1,0.3 8,2.2 10.6,5.4 2.7,3.2 3.9,7.3 3.4,11.4 -8.7,70.9 -36.8,123.5 -83.4,156.6 -45.6,32.3 -111.8,48.7 -196.9,48.7 -68.9,0 -124.2,-9 -164.5,-26.6 -41.1,-17.9 -72.4,-43.2 -93.1,-74.9 -20.7,-31.8 -31.2,-66.2 -31.2,-102.1 0,-54.7 20.6,-100.3 61.4,-135.6 39.4,-34.5 102.7,-61.2 193.4,-81.6 62.9,-13.8 86.4,-26 95.1,-33.9 11.5,-10.3 17,-21.3 17,-33.6 0,-13.2 -5.8,-24.6 -17.9,-35.1 -12.5,-10.8 -31.3,-16.3 -55.8,-16.3 -33.6,0 -58.5,10.9 -76.1,33.4 -10.9,13.9 -18.3,35.1 -22,63 -1.1,7.8 -7.8,13.4 -15.8,13 l -189.4,-11.9 c -4.1,-0.2 -7.8,-2.1 -10.4,-5.1 -2.7,-3.1 -4,-7.1 -3.6,-11.1 5.8,-68.4 31.4,-125.6 75.9,-170.2 45.6,-45.5 123.5,-67.7 238.3,-67.7 64.2,0 118.4,9.6 161.1,28.3 43.6,19.2 78,47.7 102.4,84.9 24.3,37.2 36.7,78.4 36.7,122.5 0,37.7 -9.4,72.4 -27.9,103.1 -18.5,30.7 -48.2,56.6 -88.2,77"
         style="fill:#9358e0;fill-opacity:1;fill-rule:nonzero;stroke:none"
         id="path86" />
      <path
         d="m 15838.7,3274 c 21.5,25.2 49.4,37.4 85.3,37.4 37.7,0 66.5,-12 88.2,-36.8 21.9,-25.1 33,-66.5 33,-123.1 0,-68.1 -10.7,-115.2 -31.6,-140.2 -20.7,-24.5 -49.4,-36.4 -87.9,-36.4 -37.3,0 -65.8,12.2 -87.2,37.4 -21.7,25.5 -32.7,69.4 -32.7,130.4 0,61.7 11.1,105.9 32.9,131.3 z m 344.1,127.4 c -60.6,60.2 -147.6,90.8 -258.4,90.8 -108.2,0 -194.2,-31.1 -255.4,-92.3 -61.2,-61.3 -92.3,-147.5 -92.3,-256.3 0,-77.6 15.7,-143.5 46.5,-195.7 31,-52.5 72.1,-91.4 122.2,-115.7 49.4,-24.1 112.3,-36.3 186.9,-36.3 73.7,0 136.5,14.2 186.4,42.2 50.3,28.1 89.2,68 115.8,118.6 26.4,50.1 39.8,114.8 39.8,192.2 0,107.4 -30.8,192.3 -91.5,252.5"
         style="fill:#9358e0;fill-opacity:1;fill-rule:nonzero;stroke:none"
         id="path88" />
      <path
         d="m 16670.2,3082.6 h -100.9 l 50.2,165.2 z m 74.3,388.8 c -2.2,5.9 -7.8,9.8 -14.1,9.8 h -217.1 c -6.3,0 -11.9,-3.9 -14.1,-9.8 l -242.1,-644.2 c -1.7,-4.6 -1.1,-9.8 1.7,-13.8 2.8,-4.1 7.4,-6.5 12.3,-6.5 h 203.3 c 6.6,0 12.5,4.4 14.4,10.8 l 28.2,95.6 h 203.7 l 29,-95.7 c 1.9,-6.3 7.7,-10.7 14.3,-10.7 h 208.5 c 4.9,0 9.5,2.4 12.3,6.5 2.8,4 3.5,9.2 1.7,13.8 l -242,644.2"
         style="fill:#9358e0;fill-opacity:1;fill-rule:nonzero;stroke:none"
         id="path90" />
      <path
         d="m 17249.8,3320.2 h 41.7 c 32.4,0 54.9,-5.7 65.2,-16.5 10.8,-11.2 16.1,-24.6 16.1,-41 0,-16.4 -5.9,-29.4 -18.1,-39.8 -12.5,-10.7 -37,-16.4 -71.1,-16.4 h -33.8 z m 288.3,105.4 c -38.6,36.9 -96.6,55.6 -172.3,55.6 h -330.9 c -8.3,0 -15,-6.7 -15,-15 v -644.3 c 0,-8.2 6.7,-15 15,-15 h 199.9 c 8.3,0 15,6.8 15,15 V 3046 h 94 c 83.9,0 147.6,19.8 189.4,59 42,39.4 63.4,94.4 63.4,163.4 0,67.3 -19.7,120.1 -58.5,157.2"
         style="fill:#9358e0;fill-opacity:1;fill-rule:nonzero;stroke:none"
         id="path92" />
      <path
         d="m 10126.5,8878.6 c 264.6,350.6 326.6,796.4 799.9,601.8 0,0 390.5,200.8 409.3,-423 21.8,-721.4 283.6,-1036.4 -181.5,-1208.1 -205.8,-76.1 -595.2,-209.2 -960.1,-28.1 -319.28,158.4 -442.88,560.3 -67.6,1057.4"
         style="fill:#662948;fill-opacity:1;fill-rule:nonzero;stroke:none"
         id="path94" />
      <path
         d="m 11298.7,8395.4 c 163.5,-180.9 323.3,-385.7 522.9,-524.1 38.8,-28.1 92.2,-20.2 142.2,-9.6 161,42.2 304.3,140.9 438.1,238.4 59,39.6 130.6,133.8 197.5,53.2 28.2,-37.2 11.8,-80.6 -13.8,-112.7 -38,-57 -79.7,-111.3 -124.1,-163.6 -172.8,-197.1 -408.3,-401.3 -691.9,-368.9 -292.1,57.4 -599.1,375 -796.4,588.3 -205.6,219.8 91.3,554 325.5,299"
         style="fill:#f99370;fill-opacity:1;fill-rule:nonzero;stroke:none"
         id="path96" />
      <path
         d="m 11117.5,8567.6 5.4,-82 c 0,0 107.9,-180.1 0.5,-198.5 -129,-22.2 -273.2,195.5 -273.2,195.5 0,0 6.7,52.9 2.2,91.1 l 265.1,-6.1"
         style="fill:#f99370;fill-opacity:1;fill-rule:nonzero;stroke:none"
         id="path98" />
      <path
         d="m 10837,8677.6 c 0.5,-1.9 5,16.3 15.4,-103.9 117.3,-41.8 242.5,-12.8 265.1,-6.1 -5.8,127.5 -13.3,82.4 -13.1,118.4 -4.2,13.5 -275.5,28.7 -267.4,-8.4"
         style="fill:#e57d61;fill-opacity:1;fill-rule:nonzero;stroke:none"
         id="path100" />
      <path
         d="m 9409.14,6925.4 c 0,0 -163.4,18.2 -290.72,-87.4 l 311.2,-48.7 c 54.53,-8.6 109.54,16.6 136.74,64.6 0.25,0.5 0.49,0.9 0.74,1.3 l -157.96,70.2"
         style="fill:#f99370;fill-opacity:1;fill-rule:nonzero;stroke:none"
         id="path102" />
      <path
         d="m 10850.2,8482.6 c 0,0 -145.1,-17.5 -216.1,-137.1 -71.1,-119.7 -155.4,-544 -27.8,-846.8 127.6,-302.7 -171.2,-594 -23.3,-920.1 147.9,-326.1 812.9,-336.6 1081.9,-510.7 l -50.4,558.6 292.3,240.7 c 0,0 -313.5,41.8 -410.6,203.8 -97.1,162 -88,403.8 20.6,618.4 108.7,214.6 -65.9,405.1 -393.9,796.2 l -272.7,-3"
         style="fill:#f99370;fill-opacity:1;fill-rule:nonzero;stroke:none"
         id="path104" />
      <path
         d="m 11664.9,6067.9 c -265.4,-494.4 42.6,-895.2 -106.1,-1290.5 0,0 -191.7,-229.6 98.1,-314.7 99.5,-29.2 128,-82.3 270.1,-156.7 103.3,-54.1 189.7,15.9 80.8,97.1 -96.8,72.2 -214.3,262.4 -214.3,262.4 6.6,126.7 354.7,1055.3 289.3,1502 -55.4,378.5 -369.7,489 -986.7,524 -265.7,36.8 568.8,-623.6 568.8,-623.6"
         style="fill:#f99370;fill-opacity:1;fill-rule:nonzero;stroke:none"
         id="path106" />
      <path
         d="m 12083.2,6415.1 c 0.9,-561.1 462.1,-767.8 518.8,-1186.4 0,0 -59.8,-293 235.6,-230.4 101.5,21.5 151.7,-11.7 312.1,-9.8 116.6,1.4 159.5,104 25.1,123.8 -119.5,17.7 -313.1,129.3 -313.1,129.3 -103.5,159.9 -89.9,1231 -513.7,1527.3 -229.2,160.3 -1221,69.1 -1052.9,-92.6 184.2,-177.1 788.1,-261.2 788.1,-261.2"
         style="fill:#f99370;fill-opacity:1;fill-rule:nonzero;stroke:none"
         id="path108" />
      <path
         d="m 10889.2,8039 c -174.9,-133.5 -308.8,-312.6 -463.1,-469 -273.5,-284.1 -532.14,-491.5 -859,-714.8 -74.01,-74.3 -219.02,-22.3 -157.96,70.2 -0.25,0 287.51,331.5 287.78,332.2 203.99,262.6 400.28,543.6 601.08,808.7 52.6,68 109.3,136.6 170.7,197.3 37.1,37 157.6,179.8 377.9,223.9 313.4,62.8 289.8,-245 42.6,-448.5"
         style="fill:#f99370;fill-opacity:1;fill-rule:nonzero;stroke:none"
         id="path110" />
      <path
         d="m 12576.7,6527.2 -0.1,0.1 c -49.1,118.6 -205.3,268.2 -416,354.7 -118.9,48.8 -487.8,161.9 -487.8,161.9 -460.1,215.2 96.6,761.3 -170.3,1072.8 -91.7,136.2 -251.4,210.9 -526.7,134.9 -275.4,-76 -424.3,-547.3 -424.3,-547.3 -34.3,-164.8 -1.6,-474.3 -67.1,-705.5 -209.9,-740.2 -3.3,-1169.5 517.7,-1204.5 174,-33.3 107.7,-193.5 203.8,-275.7 463.5,-218.7 520.2,767.2 1403.8,903.9 0,0 -7.8,43.8 -33,104.7"
         style="fill:#1d3f70;fill-opacity:1;fill-rule:nonzero;stroke:none"
         id="path112" />
      <path
         d="m 12723.1,8353.4 c 22.4,-29.6 -55.5,-70.6 -66.1,-102.7 59.5,-0.4 119.7,16.5 120,16.2 66.3,32.5 130.7,68.4 193.5,107.3 112.1,2.7 -130.7,-141.2 -152,-159.7 0.2,-0.3 0.3,-0.7 0.4,-1 75,18.7 149.1,41.6 220.8,70.6 115.6,-22.7 -183.5,-120.4 -210.3,-132.2 0,-0.2 0,-0.4 0,-0.6 73.5,5.7 146.4,20.4 216.7,42.7 114.5,-33.3 -197,-108.9 -226.6,-111.5 -0.1,-0.3 -0.2,-0.6 -0.2,-0.9 58.3,-3.9 117.2,-0.4 175.4,6.1 99.4,-48.1 -174.7,-72.5 -203.9,-72.8 -19,-9 -127.2,-15.3 -257.2,6.5 -42.6,7.1 -53.1,127.5 -26.5,160.6 43.5,33.8 189.6,205.1 216,171.4"
         style="fill:#f99370;fill-opacity:1;fill-rule:nonzero;stroke:none"
         id="path114" />
      <path
         d="m 12609.7,6422.5 c 0,0 -145.1,-28.5 -379.3,-151.6 -483.3,-254.2 -612.9,-952 -1024.5,-752.3 232.5,-14.2 549.7,503.7 753,731 203.3,227.3 617.8,277.6 617.8,277.6 25.2,-60.9 33,-104.7 33,-104.7"
         style="fill:#163356;fill-opacity:1;fill-rule:nonzero;stroke:none"
         id="path116" />
      <path
         d="m 10616.4,9006 c 18,-123.1 57.4,-262.2 153.3,-344.9 h 0.1 c 38.8,-33.1 86.3,-54.5 136.7,-65.2 282.8,-86.3 628,246.7 406.2,489.9 -80.3,76.4 -95.6,209.9 -159.4,285.6 -92.4,138.3 -299.6,134.2 -413,24.2 -102.6,-99.4 -139.2,-238.1 -123.9,-389.6"
         style="fill:#f99370;fill-opacity:1;fill-rule:nonzero;stroke:none"
         id="path118" />
      <path
         d="m 11086.4,9074.9 c 11.6,21.2 -21.9,38.8 -32.9,17.3 -11.5,-21.2 22,-38.8 32.9,-17.3"
         style="fill:#c16256;fill-opacity:1;fill-rule:nonzero;stroke:none"
         id="path120" />
      <path
         d="m 11243.2,9098.9 c 11.6,21.1 -22,38.8 -32.9,17.3 -11.6,-21.2 22,-38.9 32.9,-17.3"
         style="fill:#c16256;fill-opacity:1;fill-rule:nonzero;stroke:none"
         id="path122" />
      <path
         d="m 11192.5,8938.5 c -11.5,0.1 -36.7,-3.9 -35.8,11.7 1.2,3.7 5.2,5.6 8.9,4.4 23.5,-7.9 57.1,3.4 61.8,14 1.6,3.8 -3.4,7.6 -7.9,10.1 -39.1,20.4 -88.6,132.1 -52.9,105.7 0.2,-0.7 25,-73.9 59.8,-93.4 39.2,-27.9 -2.4,-48.5 -33.9,-52.5"
         style="fill:#c16256;fill-opacity:1;fill-rule:nonzero;stroke:none"
         id="path124" />
      <path
         d="m 10616.4,9006 c 18,-123.1 57.4,-262.2 153.3,-344.9 h 0.1 c -52.8,67.6 -84.1,217.4 -84.1,217.4 l 26.4,66.1 c 428.7,131.4 397.1,474.5 397.1,474.5 -269.4,199.2 -544.7,-131 -492.8,-413.1"
         style="fill:#e57d61;fill-opacity:1;fill-rule:nonzero;stroke:none"
         id="path126" />
      <path
         d="m 11064.3,9450.2 c 0,0 29.4,-338.3 -354.5,-471.3 l -135.9,77.6 c -129.8,264.2 118,645.4 490.4,393.7"
         style="fill:#662948;fill-opacity:1;fill-rule:nonzero;stroke:none"
         id="path128" />
      <path
         d="m 10620.2,9560.8 c 83.8,-323 459.8,-231.5 385.8,93.8 -83.8,323 -459.8,231.5 -385.8,-93.8"
         style="fill:#662948;fill-opacity:1;fill-rule:nonzero;stroke:none"
         id="path130" />
      <path
         d="m 10537.4,8945.1 c 25.8,-139.4 201.3,-105 172.4,33.8 -25.7,139.3 -201.2,104.9 -172.4,-33.8"
         style="fill:#f99370;fill-opacity:1;fill-rule:nonzero;stroke:none"
         id="path132" />
      <path
         d="m 10582.2,8915.6 c -28.5,30.8 -16.2,91.6 -0.9,101.9 28.2,21.6 77.7,8.9 73.7,-5 -9,-13.9 -36.8,16.3 -64.3,-5.5 -28.2,-20.2 8.2,-80 -8.5,-91.4"
         style="fill:#c16256;fill-opacity:1;fill-rule:nonzero;stroke:none"
         id="path134" />
      <path
         d="m 10648,8924.5 c -14.4,1 -18.9,53.4 -74.1,59.8 -3.8,0.3 -6.7,3.7 -6.4,7.6 39.2,28.6 106.8,-70.7 80.5,-67.4"
         style="fill:#c16256;fill-opacity:1;fill-rule:nonzero;stroke:none"
         id="path136" />
      <path
         d="m 10613.4,8879.6 c -0.6,-20.5 31.6,-21 31.6,-0.5 0.6,20.5 -31.6,20.9 -31.6,0.5"
         style="fill:#f4d4be;fill-opacity:1;fill-rule:nonzero;stroke:none"
         id="path138" />
      <path
         d="m 11164.9,8886.9 c 12.4,-0.3 20.9,3 21.6,3.2 4.4,1.8 6.6,6.8 4.8,11.2 -1.7,4.4 -6.7,6.5 -11.1,4.8 -1.2,-0.5 -27.2,-9.9 -53,16.2 -3.4,3.4 -8.8,3.4 -12.2,0.1 -3.3,-3.4 -3.4,-8.8 0,-12.2 17.8,-18 36.2,-22.9 49.9,-23.3"
         style="fill:#c16256;fill-opacity:1;fill-rule:nonzero;stroke:none"
         id="path140" />
      <path
         d="m 10998.3,9143.6 c 1.1,-0.1 2.2,0.1 3.3,0.5 l 80.3,29.8 c 4.4,1.7 6.7,6.6 5.1,11.1 -1.7,4.4 -6.7,6.7 -11.1,5 l -80.3,-29.8 c -4.4,-1.6 -6.7,-6.6 -5,-11 1.2,-3.4 4.4,-5.5 7.7,-5.6"
         style="fill:#c16256;fill-opacity:1;fill-rule:nonzero;stroke:none"
         id="path142" />
      <path
         d="m 11157.1,9180.8 71.7,-2 c 4.8,-0.2 8.7,3.5 8.8,8.3 0.2,4.7 -3.5,8.7 -8.3,8.8 l -71.7,2.1 c -4.7,0.1 -8.7,-3.6 -8.8,-8.3 -0.1,-4.8 3.6,-8.7 8.3,-8.9"
         style="fill:#c16256;fill-opacity:1;fill-rule:nonzero;stroke:none"
         id="path144" />
      <path
         d="m 11205.9,8281.1 c 0,0 144.1,-61.1 134.1,-351.1 -10,-290 -120,-690 40,-940 160,-250 760,-210 890,-580 l 50.6,56 c 0,0 -20.6,134 -280.6,244 -260,110 -660,150 -690,440 -30,290 50,470 60,660 10,190 24.4,288.3 -62.8,439.2 0,0 -45.3,33.1 -141.3,31.9"
         style="fill:#163356;fill-opacity:1;fill-rule:nonzero;stroke:none"
         id="path146" />
      <path
         d="m 21246.5,1877 c 0,0 6.1,-29.8 30.3,-30.8 l 349,-7.1 c 37.9,4.1 43.1,32.3 43.1,32.3 2.4,107.6 -69.4,120.4 -69.4,262 0,687.2 116.1,2023.1 82.9,2910.3 -8,215.4 -853.4,357 -843.1,244.3 75.7,-832.5 473.6,-3132.3 473.6,-3132.3 4.8,-60.5 -6.8,-121.8 -35.4,-172.4 -23.1,-40.5 -31.1,-54 -31,-106.3"
         style="fill:#f99370;fill-opacity:1;fill-rule:nonzero;stroke:none"
         id="path148" />
      <path
         d="m 19898.6,1826.8 h 695.3 c 31.8,0 56.8,26.7 55.2,58.4 -77,352.5 275.5,2163.2 273.9,3407.4 0,32.8 -753.7,-55.3 -785.8,-431.9 -58,-678.5 186.8,-2619.6 186.8,-2619.6 23.3,-203.3 -193.3,-224.5 -331.7,-251.5 -55,-13.8 -112.5,-35.2 -139.3,-76.3 -25,-36.7 1.2,-86.5 45.6,-86.5"
         style="fill:#f99370;fill-opacity:1;fill-rule:nonzero;stroke:none"
         id="path150" />
      <path
         d="m 20697.7,7560.2 c -1348.4,-108.2 -2010.8,1151.4 -365.8,1411.1 74,6 197.3,35.4 205,-72.5 1.3,-33.5 -17.1,-62.5 -44.6,-77.6 -163.2,-99 -675.9,-290.7 -598.5,-503.5 51.7,-141.9 540.4,-164.1 795.2,-190.3 371.2,4 379.6,-560 8.7,-567.2"
         style="fill:#f99370;fill-opacity:1;fill-rule:nonzero;stroke:none"
         id="path152" />
      <path
         d="m 19530,7808.2 c 0.1,0 0.3,-0.1 0.3,-0.3 23.9,-18.8 50.1,-37.3 78.1,-55.1 0.2,-0.1 0.4,-0.3 0.5,-0.3 199.4,-127.5 486.5,-225.2 660.1,-217.2 l 33.5,155.1 49.8,53.1 372.2,398 c 0,0 -188.4,73.4 -506.6,56.4 -318.3,-17.1 -434.9,259.4 235.9,592.8 0,0 25.1,132.1 -120.2,188.8 0,0 -629.6,-6.7 -979.8,-472.6 -190.6,-253.6 -56.1,-515.6 176.2,-698.7"
         style="fill:#1d3f70;fill-opacity:1;fill-rule:nonzero;stroke:none"
         id="path154" />
      <path
         d="m 21716,6038.7 c -63.8,-17.9 -126.4,-33.8 -187.7,-47.6 -938.4,-213.3 -1336,7.8 -1336,7.8 48.7,724.1 -60.8,1891 532.2,2142.6 98.2,46.3 184.9,-14.6 277.5,-10.3 148.4,-106.2 272.8,-290.7 374.1,-509.9 244.5,-529.5 353.7,-1261.7 339.9,-1582.6"
         style="fill:#f99370;fill-opacity:1;fill-rule:nonzero;stroke:none"
         id="path156" />
      <path
         d="m 19608.9,7752.5 c 199.4,-127.5 486.5,-225.2 660.1,-217.2 l 33.5,155.1 49.8,53.1 -6.9,82.2 c 0,0 -117.1,-173.7 -227.2,-194.7 -110,-21 -363.2,38.9 -509.3,121.5"
         style="fill:#163356;fill-opacity:1;fill-rule:nonzero;stroke:none"
         id="path158" />
      <path
         d="m 20486,8820.9 c 0,0 84.6,17.8 106.6,64 54.7,114.8 182.9,256.1 182.9,256.1 0,0 -45.2,35 -119.3,12.1 -74.2,-22.9 -220.7,-173.7 -220.7,-173.7 l 50.5,-158.5"
         style="fill:#f99370;fill-opacity:1;fill-rule:nonzero;stroke:none"
         id="path160" />
      <path
         d="m 20592.6,8884.9 c 0,0 -39.4,221.8 155.4,293.6 l 123,-92.4 -278.4,-201.2"
         style="fill:#8c4225;fill-opacity:1;fill-rule:nonzero;stroke:none"
         id="path162" />
      <path
         d="m 20724.5,8141.5 c -2.7,20.5 -4.4,42.7 -5.3,65.9 -5.3,133.8 15.5,299.7 26.4,361.8 2.9,16.8 5.1,26 5.9,24.8 1,4 2.1,7.8 3.4,11.6 14.4,45 44.9,72.3 80.2,84.4 0.1,0 0.1,0 0.1,0 52.2,17.9 115.1,2.8 153.5,-36.8 0.9,-0.8 1.6,-1.7 2.3,-2.5 24.3,-26.2 38,-62.5 31.4,-106.8 -0.3,-2 -0.5,-4.1 -0.9,-6.1 -0.5,-2.8 -1.1,-5.6 -1.7,-8.3 -6.4,4.3 -24.5,-170.2 -24.6,-296.8 0,-41.7 1.9,-78.3 6.8,-101.5 259.8,-78 -393.5,-169.1 -277.5,10.3"
         style="fill:#f99370;fill-opacity:1;fill-rule:nonzero;stroke:none"
         id="path164" />
      <path
         d="m 21022.4,8543.9 c -0.3,-2 -0.5,-4.1 -0.9,-6.1 -0.5,-2.8 -1.1,-5.6 -1.7,-8.3 -6.4,4.3 -24.5,-170.2 -24.6,-296.8 -119,-54.1 -251.7,-30.3 -276,-25.3 -5.3,133.8 15.5,299.7 26.4,361.8 3.2,14.6 5.5,23.1 5.9,24.8 1,4 2.1,7.8 3.4,11.6 13.3,39.7 43.3,69.9 80.2,84.4 0.1,0 0.1,0 0.1,0 25.5,10.1 54.2,12.6 82.9,5.7 28.4,-6.9 52.6,-22.1 70.6,-42.5 0.9,-0.8 1.6,-1.7 2.3,-2.5 24.3,-28.8 36.7,-67.3 31.4,-106.8"
         style="fill:#e57d61;fill-opacity:1;fill-rule:nonzero;stroke:none"
         id="path166" />
      <path
         d="m 21209.4,8660.5 c -20,-124 -61.8,-263.7 -159.8,-345.7 h -0.1 c -39.8,-33 -87.7,-53.7 -138.9,-63.8 -286.6,-82.9 -629.9,258.2 -402.6,500.3 76.7,69.9 93.7,186.2 148.2,262.2 242.9,325.7 620.2,-16.1 553.2,-353"
         style="fill:#f99370;fill-opacity:1;fill-rule:nonzero;stroke:none"
         id="path168" />
      <path
         d="m 20736.2,8736.9 c -4.7,9.3 -1,20.6 8.3,25.3 9.2,4.7 20.5,1 25.2,-8.3 4.7,-9.2 1,-20.5 -8.2,-25.2 -9.3,-4.7 -20.6,-1 -25.3,8.2"
         style="fill:#c16256;fill-opacity:1;fill-rule:nonzero;stroke:none"
         id="path170" />
      <path
         d="m 20578.4,8763.5 c -4.7,9.2 -1,20.5 8.2,25.2 9.3,4.7 20.6,1 25.3,-8.2 4.7,-9.3 1,-20.6 -8.3,-25.3 -9.2,-4.7 -20.5,-1 -25.2,8.3"
         style="fill:#c16256;fill-opacity:1;fill-rule:nonzero;stroke:none"
         id="path172" />
      <path
         d="m 21209.4,8660.5 c -1.3,-10.2 -2.9,-20.4 -4.8,-30.6 -1.7,-9.3 -3.7,-18.8 -5.9,-28.3 -0.3,-1.3 -0.6,-2.4 -0.8,-3.6 -2.4,-9.9 -4.8,-19.4 -7.1,-28.8 -1.8,-6.3 -3.5,-12.6 -5.3,-18.7 -2,-6.9 -4.1,-13.7 -6.3,-20.4 -7.5,-24 -15.7,-46.5 -24.8,-67.6 -6.1,-14.2 -12.6,-27.8 -19.4,-40.6 -23.4,-43.3 -51.3,-79.1 -85.4,-107.1 h -0.1 c -8.1,-6.8 -16.7,-13 -25.5,-18.7 74.5,73.9 117.7,232.5 117.7,232.5 l -17.5,134.4 c -120.3,121.8 -68.5,258.9 -68.5,258.9 -201.2,-56.4 -269,67.7 -269,67.7 -63.6,-8.2 -130.5,23.9 -130.5,23.9 5.4,8.3 11.1,16.1 16.9,23.6 14.2,18.2 29.2,34 45.2,47.4 14.5,12.3 29.7,22.5 45.8,30.8 10.7,5.6 21.9,10.2 33.4,14 1.1,0.3 2.2,0.7 3.3,1.1 26.5,8.1 54.9,11.7 85.6,10.3 20.8,-0.8 42.5,-3.9 65.4,-9.2 52.9,-12.4 99.7,-38.8 138.4,-76.1 1.6,-1.5 3,-2.9 4.6,-4.4 27.8,-27.6 51.3,-60.8 69.9,-98 41.3,-82.5 58.6,-185.2 44.7,-292.5"
         style="fill:#e57d61;fill-opacity:1;fill-rule:nonzero;stroke:none"
         id="path174" />
      <path
         d="m 21147.7,8983.5 c 0,0 -146.6,-66.5 -5.4,-291.9 l 92,-76.2 c 0,0 208.4,328.3 -86.6,368.1"
         style="fill:#8c4225;fill-opacity:1;fill-rule:nonzero;stroke:none"
         id="path176" />
      <path
         d="m 20638.1,8600.3 c -25,0 -52.3,10.9 -58.7,26 -2.1,4.9 -5,17.6 14.3,28.1 35.5,19.2 61.6,92.6 61.8,93.4 1.3,3.7 5.4,5.6 9.1,4.3 3.7,-1.3 5.6,-5.3 4.3,-9 -1.1,-3.2 -28.1,-79.4 -68.4,-101.2 -4.6,-2.5 -9.7,-6.3 -8,-10.1 4.5,-10.7 38.3,-22.7 62.1,-15 3.7,1.2 7.7,-0.9 8.9,-4.6 1.2,-3.8 -0.8,-7.8 -4.6,-9 -6.3,-2 -13.5,-2.9 -20.8,-2.9"
         style="fill:#c16256;fill-opacity:1;fill-rule:nonzero;stroke:none"
         id="path178" />
      <path
         d="m 21288.2,8597.9 c -12.6,-59.6 -61.6,-99.6 -109.5,-89.5 -47.9,10.1 -76.5,66.6 -63.9,126.1 12.6,59.5 61.6,99.5 109.5,89.4 47.9,-10.1 76.5,-66.5 63.9,-126"
         style="fill:#f99370;fill-opacity:1;fill-rule:nonzero;stroke:none"
         id="path180" />
      <path
         d="m 21243.5,8568.7 c -0.7,0 -1.4,0.1 -2.1,0.3 -3.7,1.2 -5.9,5.2 -4.7,8.9 12.8,41.8 12.3,70.6 -1.3,83.2 -18.1,16.8 -55.3,2.6 -55.6,2.5 -3.7,-1.5 -7.8,0.3 -9.2,4 -1.5,3.6 0.3,7.7 4,9.2 1.8,0.7 45.8,17.6 70.4,-5.2 18.2,-16.9 20,-49.8 5.3,-97.8 -1,-3.1 -3.8,-5.1 -6.8,-5.1"
         style="fill:#c16256;fill-opacity:1;fill-rule:nonzero;stroke:none"
         id="path182" />
      <path
         d="m 21177.2,8578.7 c -1,0 -1.9,0.1 -2.8,0.5 -3.6,1.6 -5.3,5.7 -3.8,9.3 1.1,2.5 26.1,60 80.4,63.6 3.9,0.2 7.3,-2.7 7.6,-6.6 0.3,-3.9 -2.7,-7.3 -6.6,-7.6 -45.5,-3 -68.1,-54.4 -68.3,-54.9 -1.1,-2.7 -3.8,-4.3 -6.5,-4.3"
         style="fill:#c16256;fill-opacity:1;fill-rule:nonzero;stroke:none"
         id="path184" />
      <path
         d="m 21152.4,9200.9 c -7.2,9.3 -16,18.1 -26.5,26.3 -99.9,77.4 -147.1,208 -147.1,208 0,0 -62.9,-79.3 -86.6,-172.2 -40.8,50.3 -78.4,102.8 -106,153.4 0,0 -40.2,-55.5 -55.9,-134.4 -71.7,65.7 -154.1,79.9 -154.1,79.9 -95.5,-266.7 121,-314.1 216.1,-322.3 95,-109.5 262.1,-120.1 356.4,-75.8 l 110.5,-142.9 c 175.2,269.4 -18.8,355.8 -106.8,380"
         style="fill:#8c4225;fill-opacity:1;fill-rule:nonzero;stroke:none"
         id="path186" />
      <path
         d="m 20720.8,8858 c -2.7,-0.9 -5,-3.1 -5.8,-6.1 -1.1,-4.6 1.6,-9.2 6.2,-10.4 0.7,-0.2 65.4,-16.9 109.7,-55.5 3.6,-3.2 9,-2.8 12.1,0.8 3.1,3.5 2.7,8.9 -0.8,12 -47.5,41.5 -114,58.6 -116.8,59.3 -1.6,0.4 -3.1,0.3 -4.6,-0.1"
         style="fill:#c16256;fill-opacity:1;fill-rule:nonzero;stroke:none"
         id="path188" />
      <path
         d="m 20571.6,8832 c -2.7,0 -5.2,1.3 -6.7,3.7 -2.1,3.7 -0.9,8.4 2.8,10.6 35.4,20.9 86.9,16.8 89.1,16.6 4.2,-0.4 7.4,-4.1 7,-8.3 -0.3,-4.3 -4.1,-7.4 -8.3,-7.1 -0.5,0.1 -48.9,3.9 -80,-14.5 -1.2,-0.7 -2.6,-1 -3.9,-1"
         style="fill:#c16256;fill-opacity:1;fill-rule:nonzero;stroke:none"
         id="path190" />
      <path
         d="m 20640.2,8530.5 c -3,0 -6,0.1 -9,0.3 -4.3,0.2 -7.5,3.9 -7.3,8.1 0.3,4.3 4.2,7.5 8.2,7.3 62.1,-3.6 101,37.1 101.4,37.5 2.9,3.1 7.8,3.3 10.9,0.4 3.1,-2.9 3.3,-7.7 0.4,-10.8 -1.7,-1.9 -40.3,-42.8 -104.6,-42.8"
         style="fill:#c16256;fill-opacity:1;fill-rule:nonzero;stroke:none"
         id="path192" />
      <path
         d="m 19903.1,3463.2 c 26.6,-104.2 162.9,-167.2 363.7,-153.2 36.7,2.5 75.6,7.5 116.3,15.5 263.6,51.1 354.1,2820.9 302.3,3480.7 -24.8,315.2 -16.9,633.9 -2,880.9 16.3,270.1 41.1,454.4 41.1,454.4 0,0 -254.4,0 -485.8,-519.3 -126.4,-283.7 -128.4,-1096.9 -128.4,-1646.9 0,-886.2 -238.6,-2388.9 -207.2,-2512.1"
         style="fill:#1d3f70;fill-opacity:1;fill-rule:nonzero;stroke:none"
         id="path194" />
      <path
         d="m 20221.8,4297.3 c 0,-202.6 28.6,-712.9 45,-987.3 36.7,2.5 75.6,7.5 116.3,15.5 263.6,51.1 354.1,2820.9 302.3,3480.7 -24.8,315.2 -16.9,633.9 -2,880.9 0,0 -174.4,-285.7 -276.7,-824.6 -102.3,-539 -125.9,-795.6 -153.4,-1161.1 -27.6,-365.5 -31.5,-1120.8 -31.5,-1404.1"
         style="fill:#163356;fill-opacity:1;fill-rule:nonzero;stroke:none"
         id="path196" />
      <path
         d="m 20334,3260.6 c 41.3,-171.2 1372.2,-317.9 1498.9,-82.7 167.3,310.6 28.7,1640.8 -36.6,2531.9 -19.9,272.3 -33,503.7 -28.3,652.3 2.5,82.1 2.7,160.6 0.7,235.8 -29.6,1139.3 -549.6,1507.3 -766.7,1533.2 0,0 -326.1,-307.4 -567.9,-1324.9 -241.8,-1017.5 -141.4,-3374.5 -100.1,-3545.6"
         style="fill:#1d3f70;fill-opacity:1;fill-rule:nonzero;stroke:none"
         id="path198" />
      <path
         d="m 21767.4,6250.4 c 0,0 -1000.2,-154 -1656.5,0 0,0 -49,-76.5 -0.5,-143.3 0,0 524.4,-185 1661.5,0 0,0 38.3,86 -4.5,143.3"
         style="fill:#163356;fill-opacity:1;fill-rule:nonzero;stroke:none"
         id="path200" />
      <path
         d="m 21348.3,5551.9 c 30.7,-24.4 75.8,40.1 111.5,45.5 -6,-55.3 -29.6,-108.5 -29.4,-108.8 -40.3,-56.6 -83.7,-110.6 -129.9,-162.7 -11.5,-102.5 154.4,97.2 178.7,116.1 0.3,-0.2 0.6,-0.4 1,-0.5 -27.2,-66.8 -58.5,-131.9 -95.6,-193.7 9.8,-111.3 141,149.2 157.1,174.4 0.1,0 0.3,-0.1 0.5,-0.1 -13.7,-67.2 -36.5,-132.6 -66.7,-194.3 23.6,-109.2 129.5,161.5 137.7,192.8 0.3,0 0.6,0.1 0.9,0.1 -2.3,-54.5 -12.2,-108.7 -25.1,-161.7 37.1,-100.4 92.3,148.3 96,177.7 11.3,16.3 50.8,124.9 42.7,248.8 -2.7,40.6 -147.3,81.5 -168.1,47.7 -15.6,-25.3 -84.9,-61.8 -98.7,-74.4 -31.1,-20.4 -127.9,-65.6 -112.6,-106.9"
         style="fill:#f99370;fill-opacity:1;fill-rule:nonzero;stroke:none"
         id="path202" />
      <path
         d="m 21552.1,6810 c 66.4,-270.2 72.3,-796.1 18.2,-1048.5 l 184.6,-60.1 41.4,8.4 c -19.9,272.3 -33,503.7 -28.3,652.3 2.5,82.1 2.7,160.6 0.7,235.8 -90.9,401 -263.2,809.7 -589.7,908.8 0,0 306.8,-426.6 373.1,-696.7"
         style="fill:#163356;fill-opacity:1;fill-rule:nonzero;stroke:none"
         id="path204" />
      <path
         d="m 21754.9,5701.6 c 0,-0.1 0,-0.1 -0.1,-0.2 -11.6,-14.4 -23.3,-28.6 -35.1,-42.4 l -160.1,74.2 c 0,0 4,9.4 10.5,27.5 0,0 0.1,0.3 0.2,0.8 36,100.8 145.4,462.8 65.5,945.3 -85.5,516.3 -494,812.8 -547.4,1324.3 -3.3,30.9 -85.9,67.4 -86.4,100 0,0 97.1,-33.4 120.5,-36.6 118.8,-16.3 460.1,-87.7 707,-508.7 463.2,-789.6 267.2,-1459.7 -74.6,-1884.2"
         style="fill:#f99370;fill-opacity:1;fill-rule:nonzero;stroke:none"
         id="path206" />
      <path
         d="m 21754.9,5701.6 c 0,-0.1 0,-0.1 -0.1,-0.2 0,0 -70,52.2 -184.7,59.3 0,0 0.1,0.3 0.2,0.8 7.1,25.6 192,706.3 -57.8,1233.3 -233.2,491.9 -589.2,678.6 -510.5,999.4 7.2,29.6 -13.5,105.4 0,136.9 118.8,-16.3 617.3,-109.1 864.3,-530.1 463.1,-789.6 253.9,-1514 -111.4,-1899.4"
         style="fill:#1d3f70;fill-opacity:1;fill-rule:nonzero;stroke:none"
         id="path208" />
      <path
         d="m 21067.7,6107.1 c 0,-11.8 94.4,-228.2 51.1,-574.4 -43.3,-346.3 43.3,-1038.7 59,-1203.9 15.8,-165.3 -133.7,-141.7 -153.4,-27.6 -19.7,114.1 -63.1,782.9 -33.5,1093.8 29.6,310.8 -52.6,676.7 -52.6,676.7 l 129.4,35.4"
         style="fill:#163356;fill-opacity:1;fill-rule:nonzero;stroke:none"
         id="path210" />
      <path
         d="m 21240.9,8074.5 -299.7,-204.8 V 7687.1 L 20677.4,7575 c 0,0 98.9,400.6 324.6,556.1 0,0 102.6,4 238.9,-56.6"
         style="fill:#163356;fill-opacity:1;fill-rule:nonzero;stroke:none"
         id="path212" />
      <path
         d="m 20724.5,8141.5 c 0,0 -67.5,53.6 -194,44.3 l 83.4,-279.4 -63.8,-196.7 127.3,-134.7 c 0,0 34.4,324.4 47.1,566.5"
         style="fill:#163356;fill-opacity:1;fill-rule:nonzero;stroke:none"
         id="path214" />
      <path
         d="m 19034.3,3755.5 -11.4,-1.5 c 53.1,-57.2 88.7,-130.1 100,-209.8 30,-212.3 -118.3,-409.4 -330.6,-439.3 -193.3,-27.3 -374,93.2 -427.4,275.3 -10.9,-2.8 -21.9,-4.9 -33,-6.5 -172.6,-24.4 -332.9,96.2 -357.3,268.9 -7,49.1 -2.2,98.6 13.4,144.8 -215.2,53.6 -379.5,232.2 -411.3,457.6 -2.9,20.2 -4.6,40.7 -5.2,61.3 -53.5,11 -104.8,32.8 -150,64 -34.4,-16.9 -70.9,-28.1 -109,-33.5 -116.6,-16.4 -231.1,23.5 -311.5,105.9 -30.8,-19.5 -65.6,-32.4 -102,-37.5 -140.9,-20 -271.7,78.5 -291.6,219.4 -19.9,141 78.5,271.8 219.5,291.7 44.8,6.4 89.7,0.9 130.9,-15.5 9.3,14 19.5,27.3 30.4,39.7 56.6,64.3 134.6,107 222.2,119.4 27.8,3.9 55.9,4.6 83.8,2 -17.9,171.1 103.1,327.4 274.7,351.6 55.1,7.8 110.9,1 162.1,-19.1 93.6,163.4 255.9,274.3 444.7,301 281.6,39.7 551.3,-120.9 653.9,-379.8 30.5,11.1 62.1,18.9 94.6,23.5 106,15 208.9,-6.8 295.8,-55.6 123.4,-69.4 214.3,-193.5 235.6,-344.3 16.1,-113.6 -10.4,-229.4 -73.1,-324.6 57.4,-73.5 94.2,-160.3 107.4,-253.6 41.3,-292.6 -163.1,-564.2 -455.6,-605.5"
         style="fill:#b8d2ff;fill-opacity:1;fill-rule:nonzero;stroke:none"
         id="path216" />
      <path
         d="m 18834.3,4355.5 -11.4,-1.5 c 53.1,-57.2 88.7,-130.1 100,-209.8 30,-212.3 -118.3,-409.4 -330.6,-439.3 -193.3,-27.3 -374,93.2 -427.4,275.3 -10.9,-2.8 -21.9,-4.9 -33,-6.5 -172.6,-24.4 -332.9,96.2 -357.3,268.9 -7,49.1 -2.2,98.6 13.4,144.8 -215.2,53.6 -379.5,232.2 -411.3,457.6 -2.9,20.2 -4.6,40.7 -5.2,61.3 -53.5,11 -104.8,32.8 -150,64 -34.4,-16.9 -70.9,-28.1 -109,-33.5 -42.2,-5.9 -84.2,-4.5 -124.3,3.7 56.6,64.3 134.6,107 222.2,119.4 27.8,3.9 55.9,4.6 83.8,2 -17.9,171.1 103.1,327.4 274.7,351.6 55.1,7.8 110.9,1 162.1,-19.1 93.6,163.4 255.9,274.3 444.7,301 281.6,39.7 551.3,-120.9 653.9,-379.8 30.5,11.1 62.1,18.9 94.6,23.5 106,15 208.9,-6.8 295.8,-55.6 0,0 106.2,-81.5 132.1,-301.2 34.6,-293.4 -225.3,-585.5 -517.8,-626.8"
         style="fill:#dcf0ff;fill-opacity:1;fill-rule:nonzero;stroke:none"
         id="path218" />
      <path
         d="m 5732.76,5916.5 c 8.16,-186.6 -136.97,-344.9 -323.47,-353.1 -31,-1.3 -61.46,1.4 -90.78,8.2 -26.22,6 -51.52,15.1 -75.58,27.2 -72.84,-140.2 -215.29,-233.4 -378.7,-240.5 -113.31,-4.9 -222.78,33.1 -307.9,104.5 -117.61,-170.8 -309.25,-278.7 -520.16,-287.9 -201.41,-8.8 -396.1,75.6 -528.32,224.4 -109.32,-127.2 -250.09,-224.6 -407.48,-281.6 7.13,-36.4 11.6,-73.3 13.17,-110.4 17.79,-406.7 -298.65,-751.9 -705.26,-769.7 -113,-5 -224.58,16 -327.23,60.8 -53.34,-109.7 -162.73,-183.9 -290.13,-189.6 -102.91,-4.5 -197.27,37.6 -262.68,107.4 -53.64,57.2 -87.85,133 -91.48,217.2 -1.62,37.7 2.92,74.9 13.34,110.3 -165.47,49.1 -285.6,197.5 -293.54,378.1 -6.88,158.5 76.58,303.4 210.4,378.4 -33.07,64.2 -51.97,134.8 -55.14,208.2 -12.13,276.8 203.3,512 480.22,524 l 1.19,0.1 c -1.33,519.3 408.95,953.2 932.48,976 234.51,10.3 458.73,-61.8 641.1,-204.5 77.41,129.4 216.2,215 370.61,221.8 250.71,11 463.61,-184.1 474.52,-434.7 1.66,-38 -1.44,-75.7 -9.23,-112.5 51.29,-15.8 100.73,-37.9 146.83,-65.4 58.95,88.3 157.74,146.1 266.85,150.9 186.61,8.1 345,-137 353.16,-323.5 -0.02,-0.9 0.05,-1.7 0.02,-2.5 67.28,-19.5 129.11,-54.6 180.41,-102.3 59.45,62.2 141.41,100.3 229.71,104.2 186.62,8.1 344.91,-137 353.07,-323.5"
         style="fill:#b8d2ff;fill-opacity:1;fill-rule:nonzero;stroke:none"
         id="path220" />
      <path
         d="m 5242.93,5598.8 c -72.84,-140.2 -215.29,-233.4 -378.7,-240.5 -113.31,-4.9 -222.78,33.1 -307.9,104.5 -117.61,-170.8 -309.25,-278.7 -520.16,-287.9 -201.41,-8.8 -396.1,75.6 -528.32,224.4 -109.32,-127.2 -250.09,-224.6 -407.48,-281.6 7.13,-36.4 11.6,-73.3 13.17,-110.4 17.79,-406.7 -298.65,-751.9 -705.26,-769.7 -113,-5 -224.58,16 -327.23,60.8 -53.34,-109.7 -162.73,-183.9 -290.13,-189.6 -102.91,-4.5 -197.27,37.6 -262.68,107.4 14.8,132.4 92.74,248.9 208,313.5 -33.07,64.2 -51.97,134.8 -55.14,208.2 -12.12,276.8 203.3,512 480.22,524 l 1.19,0.1 c -1.33,519.3 408.96,953.2 932.48,976 234.51,10.3 458.73,-61.8 641.1,-204.5 77.41,129.4 216.2,215.1 370.61,221.8 250.71,11 463.61,-184.1 474.53,-434.7 1.65,-38 -1.45,-75.6 -9.24,-112.5 51.3,-15.8 100.73,-37.8 146.83,-65.4 58.95,88.3 157.75,146.2 266.85,150.9 151.01,6.6 257.26,-194.8 257.26,-194.8"
         style="fill:#dcf0ff;fill-opacity:1;fill-rule:nonzero;stroke:none"
         id="path222" />
      <path
         d="m 12745.9,10620.4 c 0,-390.6 -316.7,-707.4 -707.4,-707.4 -272.6,0 -509.1,154.2 -627.2,380.1 -51.2,97.9 -80.2,209.2 -80.2,327.3 0,390.7 316.7,707.5 707.4,707.5 118.1,0 229.4,-28.9 327.2,-80.1 226,-118.1 380.2,-354.8 380.2,-627.4"
         style="fill:#b8d2ff;fill-opacity:1;fill-rule:nonzero;stroke:none"
         id="path224" />
      <path
         d="m 12445.9,10920.4 c 0,-390.6 -316.7,-707.4 -707.4,-707.4 -118.1,0 -229.4,28.9 -327.2,80.1 -51.2,97.9 -80.2,209.2 -80.2,327.3 0,390.7 316.7,707.5 707.4,707.5 118.1,0 229.4,-28.9 327.2,-80.1 51.2,-97.9 80.2,-209.2 80.2,-327.4"
         style="fill:#dcf0ff;fill-opacity:1;fill-rule:nonzero;stroke:none"
         id="path226" />
      <path
         d="m 11803.8,11025.3 c 0,-56.4 -45.7,-102.1 -102.1,-102.1 -56.4,0 -102.1,45.7 -102.1,102.1 0,56.4 45.7,102.1 102.1,102.1 56.4,0 102.1,-45.7 102.1,-102.1"
         style="fill:#ffffff;fill-opacity:1;fill-rule:nonzero;stroke:none"
         id="path228" />
      <path
         d="m 14483.1,12680.9 c 0,-233.3 -189.1,-422.5 -422.5,-422.5 -162.8,0 -304,92 -374.6,227 -30.5,58.4 -47.9,124.9 -47.9,195.5 0,233.3 189.2,422.5 422.5,422.5 70.6,0 137,-17.2 195.5,-47.8 134.9,-70.6 227,-211.9 227,-374.7"
         style="fill:#b8d2ff;fill-opacity:1;fill-rule:nonzero;stroke:none"
         id="path230" />
      <path
         d="m 14304,12860 c 0,-233.3 -189.2,-422.5 -422.5,-422.5 -70.6,0 -137.1,17.3 -195.5,47.9 -30.5,58.4 -47.9,124.9 -47.9,195.5 0,233.3 189.2,422.5 422.5,422.5 70.6,0 137,-17.2 195.5,-47.8 30.5,-58.5 47.9,-125 47.9,-195.6"
         style="fill:#dcf0ff;fill-opacity:1;fill-rule:nonzero;stroke:none"
         id="path232" />
      <path
         d="m 13920.5,12922.7 c 0,-33.7 -27.3,-61 -61,-61 -33.7,0 -61,27.3 -61,61 0,33.7 27.3,61 61,61 33.7,0 61,-27.3 61,-61"
         style="fill:#ffffff;fill-opacity:1;fill-rule:nonzero;stroke:none"
         id="path234" />
      <path
         d="m 10219.7,15841.7 c 0,-388.8 -315.2,-704.1 -704.1,-704.1 -271.33,0 -506.74,153.5 -624.29,378.3 -50.96,97.5 -79.83,208.2 -79.83,325.8 0,388.9 315.23,704.2 704.12,704.2 117.56,0 228.34,-28.7 325.69,-79.7 224.91,-117.6 378.41,-353.2 378.41,-624.5"
         style="fill:#b8d2ff;fill-opacity:1;fill-rule:nonzero;stroke:none"
         id="path236" />
      <path
         d="m 9921.12,16140.3 c 0,-388.8 -315.23,-704.1 -704.13,-704.1 -117.55,0 -228.33,28.7 -325.68,79.7 -50.96,97.5 -79.83,208.2 -79.83,325.8 0,388.9 315.23,704.2 704.12,704.2 117.56,0 228.34,-28.7 325.69,-79.7 50.96,-97.4 79.83,-208.2 79.83,-325.9"
         style="fill:#dcf0ff;fill-opacity:1;fill-rule:nonzero;stroke:none"
         id="path238" />
      <path
         d="m 9282.02,16244.8 c 0,-56.2 -45.51,-101.7 -101.66,-101.7 -56.14,0 -101.65,45.5 -101.65,101.7 0,56.1 45.51,101.6 101.65,101.6 56.15,0 101.66,-45.5 101.66,-101.6"
         style="fill:#ffffff;fill-opacity:1;fill-rule:nonzero;stroke:none"
         id="path240" />
      <path
         d="m 11932.5,13865.6 c 0,-233.3 -189.2,-422.5 -422.5,-422.5 -162.8,0 -304.1,92.1 -374.6,227 -30.6,58.5 -47.9,124.9 -47.9,195.5 0,233.3 189.1,422.5 422.5,422.5 70.5,0 137,-17.2 195.4,-47.8 135,-70.5 227.1,-211.9 227.1,-374.7"
         style="fill:#b8d2ff;fill-opacity:1;fill-rule:nonzero;stroke:none"
         id="path242" />
      <path
         d="m 11753.3,14044.8 c 0,-233.3 -189.1,-422.5 -422.5,-422.5 -70.5,0 -137,17.2 -195.4,47.8 -30.6,58.5 -47.9,124.9 -47.9,195.5 0,233.3 189.1,422.5 422.5,422.5 70.5,0 137,-17.2 195.4,-47.8 30.6,-58.5 47.9,-124.9 47.9,-195.5"
         style="fill:#dcf0ff;fill-opacity:1;fill-rule:nonzero;stroke:none"
         id="path244" />
      <path
         d="m 11369.8,14107.4 c 0,-33.6 -27.3,-61 -61,-61 -33.6,0 -61,27.4 -61,61 0,33.7 27.4,61 61,61 33.7,0 61,-27.3 61,-61"
         style="fill:#ffffff;fill-opacity:1;fill-rule:nonzero;stroke:none"
         id="path246" />
      <path
         d="m 16329.1,11232.5 c 0,-233.3 -189.2,-422.5 -422.5,-422.5 -162.9,0 -304.1,92.1 -374.6,227 -30.6,58.5 -47.9,125 -47.9,195.5 0,233.3 189.1,422.6 422.5,422.6 70.5,0 137,-17.3 195.4,-47.9 135,-70.5 227.1,-211.9 227.1,-374.7"
         style="fill:#b8d2ff;fill-opacity:1;fill-rule:nonzero;stroke:none"
         id="path248" />
      <path
         d="m 16149.9,11411.7 c 0,-233.3 -189.2,-422.5 -422.5,-422.5 -70.6,0 -137,17.2 -195.4,47.8 -30.6,58.5 -47.9,125 -47.9,195.5 0,233.3 189.1,422.6 422.5,422.6 70.5,0 137,-17.3 195.4,-47.9 30.6,-58.5 47.9,-124.9 47.9,-195.5"
         style="fill:#dcf0ff;fill-opacity:1;fill-rule:nonzero;stroke:none"
         id="path250" />
      <path
         d="m 15766.4,11474.4 c 0,-33.7 -27.3,-61 -61,-61 -33.7,0 -61,27.3 -61,61 0,33.6 27.3,60.9 61,60.9 33.7,0 61,-27.3 61,-60.9"
         style="fill:#ffffff;fill-opacity:1;fill-rule:nonzero;stroke:none"
         id="path252" />
      <path
         d="m 4374.08,9508.4 c 0,-390.6 -316.7,-707.4 -707.4,-707.4 -272.6,0 -509.1,154.2 -627.2,380.1 -51.2,97.9 -80.2,209.2 -80.2,327.3 0,390.7 316.7,707.5 707.4,707.5 118.1,0 229.4,-28.8 327.2,-80 226,-118.1 380.2,-354.9 380.2,-627.5"
         style="fill:#b8d2ff;fill-opacity:1;fill-rule:nonzero;stroke:none"
         id="path254" />
      <path
         d="m 4074.08,9808.4 c 0,-390.6 -316.7,-707.4 -707.4,-707.4 -118.1,0 -229.4,28.9 -327.2,80.1 -51.2,97.9 -80.2,209.2 -80.2,327.3 0,390.7 316.7,707.5 707.4,707.5 118.1,0 229.4,-28.8 327.2,-80 51.2,-98 80.2,-209.3 80.2,-327.5"
         style="fill:#dcf0ff;fill-opacity:1;fill-rule:nonzero;stroke:none"
         id="path256" />
      <path
         d="m 3432,9913.4 c 0,-56.4 -45.72,-102.1 -102.12,-102.1 -56.41,0 -102.13,45.7 -102.13,102.1 0,56.4 45.72,102.1 102.13,102.1 56.4,0 102.12,-45.7 102.12,-102.1"
         style="fill:#ffffff;fill-opacity:1;fill-rule:nonzero;stroke:none"
         id="path258" />
      <path
         d="m 5442.03,12115.4 c 0,-233.3 -189.15,-422.5 -422.5,-422.5 -162.81,0 -304.06,92.1 -374.6,227 -30.57,58.5 -47.9,125 -47.9,195.5 0,233.4 189.16,422.6 422.5,422.6 70.54,0 137.02,-17.3 195.43,-47.8 134.98,-70.6 227.07,-211.9 227.07,-374.8"
         style="fill:#b8d2ff;fill-opacity:1;fill-rule:nonzero;stroke:none"
         id="path260" />
      <path
         d="m 5262.86,12294.6 c 0,-233.3 -189.15,-422.5 -422.5,-422.5 -70.54,0 -137.01,17.3 -195.43,47.8 -30.57,58.5 -47.9,125 -47.9,195.5 0,233.4 189.16,422.6 422.5,422.6 70.54,0 137.02,-17.3 195.43,-47.8 30.58,-58.5 47.9,-125 47.9,-195.6"
         style="fill:#dcf0ff;fill-opacity:1;fill-rule:nonzero;stroke:none"
         id="path262" />
      <path
         d="m 4879.38,12357.3 c 0,-33.7 -27.31,-61 -61,-61 -33.69,0 -61,27.3 -61,61 0,33.7 27.31,61 61,61 33.69,0 61,-27.3 61,-61"
         style="fill:#ffffff;fill-opacity:1;fill-rule:nonzero;stroke:none"
         id="path264" />
      <path
         d="m 19352.3,13794.2 c 0,-233.3 -189.1,-422.5 -422.5,-422.5 -162.8,0 -304,92.1 -374.6,227 -30.5,58.4 -47.9,124.9 -47.9,195.5 0,233.3 189.2,422.5 422.5,422.5 70.6,0 137,-17.3 195.5,-47.8 134.9,-70.6 227,-211.9 227,-374.7"
         style="fill:#b8d2ff;fill-opacity:1;fill-rule:nonzero;stroke:none"
         id="path266" />
      <path
         d="m 19173.2,13973.3 c 0,-233.3 -189.2,-422.5 -422.5,-422.5 -70.6,0 -137.1,17.3 -195.5,47.9 -30.5,58.4 -47.9,124.9 -47.9,195.5 0,233.3 189.2,422.5 422.5,422.5 70.6,0 137,-17.3 195.5,-47.8 30.5,-58.5 47.9,-125 47.9,-195.6"
         style="fill:#dcf0ff;fill-opacity:1;fill-rule:nonzero;stroke:none"
         id="path268" />
      <path
         d="m 18789.7,14036 c 0,-33.7 -27.3,-61 -61,-61 -33.7,0 -61,27.3 -61,61 0,33.7 27.3,61 61,61 33.7,0 61,-27.3 61,-61"
         style="fill:#ffffff;fill-opacity:1;fill-rule:nonzero;stroke:none"
         id="path270" />
      <path
         d="m 13729.9,15795.8 c 0,-363.6 -294.8,-658.5 -658.5,-658.5 -253.8,0 -473.9,143.5 -583.9,353.8 -47.6,91.1 -74.6,194.7 -74.6,304.7 0,363.7 294.8,658.6 658.5,658.6 109.9,0 213.5,-26.9 304.6,-74.6 210.3,-109.9 353.9,-330.3 353.9,-584"
         style="fill:#b8d2ff;fill-opacity:1;fill-rule:nonzero;stroke:none"
         id="path272" />
      <path
         d="m 13450.6,16075 c 0,-363.6 -294.8,-658.5 -658.5,-658.5 -109.9,0 -213.5,26.9 -304.6,74.6 -47.6,91.1 -74.6,194.7 -74.6,304.7 0,363.7 294.8,658.6 658.5,658.6 109.9,0 213.5,-26.9 304.6,-74.6 47.6,-91.1 74.6,-194.7 74.6,-304.8"
         style="fill:#dcf0ff;fill-opacity:1;fill-rule:nonzero;stroke:none"
         id="path274" />
      <path
         d="m 12852.9,16172.7 c 0,-52.5 -42.5,-95 -95.1,-95 -52.5,0 -95,42.5 -95,95 0,52.5 42.5,95.1 95,95.1 52.6,0 95.1,-42.6 95.1,-95.1"
         style="fill:#ffffff;fill-opacity:1;fill-rule:nonzero;stroke:none"
         id="path276" />
      <path
         d="m 23786.5,11322.1 c 0,-363.6 -294.8,-658.5 -658.5,-658.5 -253.7,0 -473.9,143.5 -583.8,353.8 -47.7,91.1 -74.7,194.7 -74.7,304.7 0,363.7 294.8,658.6 658.5,658.6 110,0 213.6,-26.9 304.6,-74.6 210.4,-109.9 353.9,-330.3 353.9,-584"
         style="fill:#b8d2ff;fill-opacity:1;fill-rule:nonzero;stroke:none"
         id="path278" />
      <path
         d="m 23507.3,11601.3 c 0,-363.6 -294.8,-658.5 -658.5,-658.5 -110,0 -213.6,26.9 -304.6,74.6 -47.7,91.1 -74.7,194.7 -74.7,304.7 0,363.7 294.8,658.6 658.5,658.6 110,0 213.6,-26.9 304.6,-74.6 47.7,-91.1 74.7,-194.7 74.7,-304.8"
         style="fill:#dcf0ff;fill-opacity:1;fill-rule:nonzero;stroke:none"
         id="path280" />
      <path
         d="m 22909.6,11699 c 0,-52.5 -42.6,-95.1 -95.1,-95.1 -52.5,0 -95.1,42.6 -95.1,95.1 0,52.5 42.6,95.1 95.1,95.1 52.5,0 95.1,-42.6 95.1,-95.1"
         style="fill:#ffffff;fill-opacity:1;fill-rule:nonzero;stroke:none"
         id="path282" />
    </g>
  </g>
</svg>
