<?xml version="1.0" encoding="UTF-8" standalone="no"?>
<!-- Created with Inkscape (http://www.inkscape.org/) -->

<svg
   version="1.1"
   id="svg2"
   width="800"
   height="800"
   viewBox="0 0 800 800"
   sodipodi:docname="smartphone_cartoon.svg"
   inkscape:version="1.3 (0e150ed6c4, 2023-07-21)"
   xmlns:inkscape="http://www.inkscape.org/namespaces/inkscape"
   xmlns:sodipodi="http://sodipodi.sourceforge.net/DTD/sodipodi-0.dtd"
   xmlns="http://www.w3.org/2000/svg"
   xmlns:svg="http://www.w3.org/2000/svg">
  <defs
     id="defs6" />
  <sodipodi:namedview
     id="namedview4"
     pagecolor="#ffffff"
     bordercolor="#000000"
     borderopacity="0.25"
     inkscape:showpageshadow="2"
     inkscape:pageopacity="0.0"
     inkscape:pagecheckerboard="0"
     inkscape:deskcolor="#d1d1d1"
     inkscape:zoom="1.04625"
     inkscape:cx="399.5221"
     inkscape:cy="400"
     inkscape:window-width="1920"
     inkscape:window-height="1051"
     inkscape:window-x="-9"
     inkscape:window-y="-9"
     inkscape:window-maximized="1"
     inkscape:current-layer="g10" />
  <g
     id="g8"
     inkscape:groupmode="layer"
     inkscape:label="ink_ext_XXXXXX"
     transform="matrix(1.3333333,0,0,-1.3333333,0,800)">
    <g
       id="g10"
       transform="scale(0.1)">
      <path
         d="M 0,6000 H 6000 V 0 H 0 v 6000"
         style="fill:none;fill-opacity:1;fill-rule:nonzero;stroke:none"
         id="path12" />
      <path
         d="M 3880,465 H 2120 c -198.82,0 -360,161.18 -360,360 v 4350 c 0,198.82 161.18,360 360,360 h 1760 c 198.82,0 360,-161.18 360,-360 V 825 c 0,-198.82 -161.18,-360 -360,-360"
         style="fill:#e12148;fill-opacity:1;fill-rule:nonzero;stroke:none"
         id="path14" />
      <path
         d="m 2123.59,504.602 c -176.44,0 -320,143.546 -320,320 V 5174.6 c 0,176.45 143.56,320 320,320 h 1760 c 176.45,0 320,-143.55 320,-320 V 824.602 c 0,-176.454 -143.55,-320 -320,-320 h -1760"
         style="fill:#040606;fill-opacity:1;fill-rule:nonzero;stroke:none"
         id="path16" />
      <path
         d="M 4120,5175 V 825 C 4120,692.699 4012.3,585 3880,585 H 2120 c -56.7,0 -108.9,19.801 -150,52.801 -54.8,44 -90,111.597 -90,187.199 v 4350 c 0,132.3 107.7,240 240,240 h 390 c 14.9,0 27.2,-10.8 29.5,-25 0.4,-1.6 0.5,-3.3 0.5,-5 v -30 c 0,-71.8 58.2,-130 130,-130 h 660 c 71.8,0 130,58.2 130,130 v 30 c 0,16.6 13.4,30 30,30 h 390 c 61.2,0 117,-23 159.4,-60.8 49.4,-43.9 80.6,-108 80.6,-179.2"
         style="fill:#5dcbee;fill-opacity:1;fill-rule:nonzero;stroke:none"
         id="path18" />
      <path
         d="m 2700.95,5345.75 c 0,-20.55 -16.66,-37.21 -37.21,-37.21 -20.55,0 -37.21,16.66 -37.21,37.21 0,20.54 16.66,37.2 37.21,37.2 20.55,0 37.21,-16.66 37.21,-37.2"
         style="fill:#19191a;fill-opacity:1;fill-rule:nonzero;stroke:none"
         id="path20" />
      <path
         d="m 3099.68,5308.54 h -199.36 c -20.54,0 -37.19,16.66 -37.19,37.21 v 0 c 0,20.54 16.65,37.2 37.19,37.2 h 199.36 c 20.54,0 37.2,-16.66 37.2,-37.2 v 0 c 0,-20.55 -16.66,-37.21 -37.2,-37.21"
         style="fill:#19191a;fill-opacity:1;fill-rule:nonzero;stroke:none"
         id="path22" />
      <path
         d="M 4039.4,5354.2 1880,3194.8 v 1535.6 l 659.5,659.6 c 0.4,-1.6 0.5,-3.3 0.5,-5 v -30 c 0,-71.8 58.2,-130 130,-130 h 660 c 71.8,0 130,58.2 130,130 v 30 c 0,16.6 13.4,30 30,30 h 390 c 61.2,0 117,-23 159.4,-60.8"
         style="fill:#95dcef;fill-opacity:1;fill-rule:nonzero;stroke:none"
         id="path24" />
      <path
         d="M 4120,2787.8 V 1252.2 L 3452.8,585 H 2120 c -56.7,0 -108.9,19.801 -150,52.801 L 4120,2787.8"
         style="fill:#95dcef;fill-opacity:1;fill-rule:nonzero;stroke:none"
         id="path26" />
      <path
         d="M 4120,5157.6 V 4131.2 l -2240,-2240 v 1026.4 l 2240,2240"
         style="fill:#95dcef;fill-opacity:1;fill-rule:nonzero;stroke:none"
         id="path28" />
      <path
         d="m 4120,3763.4 v -513.2 l -2240,-2240 v 513.2 l 2240,2240"
         style="fill:#95dcef;fill-opacity:1;fill-rule:nonzero;stroke:none"
         id="path30" />
      <path
         d="M 3880,5575 H 2120 c -220.56,0 -400,-179.44 -400,-400 V 825 c 0,-220.559 179.44,-400 400,-400 h 1760 c 220.56,0 400,179.441 400,400 v 4350 c 0,220.56 -179.44,400 -400,400 z m 0,-40 c 198.82,0 360,-161.18 360,-360 V 825 C 4240,626.18 4078.82,465 3880,465 H 2120 c -198.82,0 -360,161.18 -360,360 v 4350 c 0,198.82 161.18,360 360,360 h 1760"
         style="fill:#040606;fill-opacity:1;fill-rule:nonzero;stroke:none"
         id="path32" />
      <path
         d="m 2120,505 c -176.45,0 -320,143.551 -320,320 v 4350 c 0,176.45 143.55,320 320,320 h 1760 c 176.45,0 320,-143.55 320,-320 V 825 c 0,-176.449 -143.55,-320 -320,-320 z"
         style="fill:none;stroke:#040606;stroke-width:20;stroke-linecap:butt;stroke-linejoin:miter;stroke-miterlimit:10;stroke-dasharray:none;stroke-opacity:1"
         id="path34" />
      <path
         d="M 4120,5175 V 825 C 4120,692.699 4012.3,585 3880,585 H 2120 c -132.3,0 -240,107.699 -240,240 v 4350 c 0,132.3 107.7,240 240,240 h 390 c 16.6,0 30,-13.4 30,-30 v -30 c 0,-71.8 58.2,-130 130,-130 h 660 c 71.8,0 130,58.2 130,130 v 30 c 0,16.6 13.4,30 30,30 h 390 c 132.3,0 240,-107.7 240,-240 z"
         style="fill:none;stroke:#040606;stroke-width:20;stroke-linecap:butt;stroke-linejoin:miter;stroke-miterlimit:10;stroke-dasharray:none;stroke-opacity:1"
         id="path36" />
      <path
         d="m 2510,5415 c 16.6,0 30,-13.4 30,-30 v -30 c 0,-71.8 58.2,-130 130,-130 h 660 c 71.8,0 130,58.2 130,130 v 30 c 0,16.6 13.4,30 30,30"
         style="fill:none;stroke:#040606;stroke-width:20;stroke-linecap:butt;stroke-linejoin:miter;stroke-miterlimit:10;stroke-dasharray:none;stroke-opacity:1"
         id="path38" />
      <path
         d="M 1724.16,4325 H 1700 v 190 h 24.16 v -190"
         style="fill:#040606;fill-opacity:1;fill-rule:nonzero;stroke:none"
         id="path40" />
      <path
         d="M 1724.16,3765 H 1700 v 370 h 24.16 v -370"
         style="fill:#040606;fill-opacity:1;fill-rule:nonzero;stroke:none"
         id="path42" />
      <path
         d="m 4300,3435 h -24.16 v 589.67 H 4300 V 3435"
         style="fill:#040606;fill-opacity:1;fill-rule:nonzero;stroke:none"
         id="path44" />
      <path
         d="m 2700.95,5345.75 c 0,-20.55 -16.66,-37.21 -37.21,-37.21 -20.55,0 -37.21,16.66 -37.21,37.21 0,20.54 16.66,37.2 37.21,37.2 20.55,0 37.21,-16.66 37.21,-37.2 z"
         style="fill:none;stroke:#040606;stroke-width:20;stroke-linecap:butt;stroke-linejoin:miter;stroke-miterlimit:10;stroke-dasharray:none;stroke-opacity:1"
         id="path46" />
      <path
         d="m 3099.68,5308.54 h -199.36 c -20.54,0 -37.19,16.66 -37.19,37.21 v 0 c 0,20.54 16.65,37.2 37.19,37.2 h 199.36 c 20.54,0 37.2,-16.66 37.2,-37.2 v 0 c 0,-20.55 -16.66,-37.21 -37.2,-37.21 z"
         style="fill:none;stroke:#040606;stroke-width:20;stroke-linecap:butt;stroke-linejoin:miter;stroke-miterlimit:10;stroke-dasharray:none;stroke-opacity:1"
         id="path48" />
    </g>
  </g>
</svg>
